<svg width="120" height="60" viewBox="0 0 120 60" fill="none" xmlns="http://www.w3.org/2000/svg">
<path d="M74.3861 24.3106C73.8637 23.9153 73.2143 23.4494 73.0025 23.1953C73.1155 22.9694 73.4119 22.5318 73.6519 22.1788C74.9084 20.3576 77.2378 16.9412 77.2378 12.0706C77.2378 6.50824 73.1719 0 61.6943 0C56.259 0 50.1178 1.79294 44.8237 4.92706C40.0661 7.73647 37.0025 11.0118 37.0025 13.2565C37.0025 13.7929 37.2143 14.2871 37.6096 14.6824C39.0919 16.1647 43.2425 16.1224 48.0425 16.1224C55.1719 16.1224 58.1225 16.5176 58.1225 17.6471C58.1225 19.0165 49.7084 22.4047 49.7084 25.3694C49.7084 28.7859 56.7672 29.4212 59.9578 30C62.9649 30.5365 63.2755 32.1741 63.2755 33.2894C63.2755 35.3788 62.499 37.2424 61.1014 38.5129C59.7743 39.7271 58.1366 40.4894 55.7366 40.3765C56.499 34.8847 52.6025 31.1718 46.9413 31.1718C40.5319 31.1718 36.7061 36.4659 36.7061 41.6047C36.7061 49.6941 44.1743 57.8824 58.4472 57.8824C64.0943 57.8824 69.7978 56.0188 74.1037 52.7718C77.6614 50.0894 81.9108 45.1906 81.9108 37.1718C81.9108 29.8588 77.0119 26.2447 74.3861 24.3106ZM51.3319 25.3835H51.3178C51.3461 24.48 53.8025 22.9129 55.4402 21.8682C57.8402 20.3435 59.7319 19.1294 59.7319 17.6612C59.7319 17.0682 59.5061 16.5176 59.0684 16.0941C57.4449 14.4706 52.8708 14.4847 48.0284 14.5129C46.2637 14.5129 44.4002 14.5694 42.6072 14.4282C44.4284 13.8212 46.6308 12.6494 49.0731 11.3365C52.6449 9.43059 56.6261 7.29882 60.3531 6.45177C59.3649 7.44 58.7155 8.64 58.7155 9.61412C58.7155 10.0094 58.9555 10.4329 59.6331 10.4329C60.2261 10.4329 60.9461 10.2071 61.7649 9.93882C63.939 9.23294 66.819 8.28706 70.0802 10.6729C68.9649 10.6729 68.0613 10.9694 67.539 11.3788C67.0449 11.7741 66.9319 12.1835 66.9319 12.4659C66.9319 12.9176 67.2708 13.2988 67.7366 13.8212C68.4708 14.64 69.4731 15.7835 69.4731 17.5765C69.4731 19.0588 68.8519 20.6118 67.9484 21.7129C68.0755 20.7388 67.9061 19.3129 67.3414 18.6494C67.0731 18.3388 66.7202 18.1835 66.3108 18.1835C65.6472 18.1835 65.0119 18.72 64.0378 19.5247C63.3602 20.0894 62.499 20.7953 61.4261 21.5012C58.2355 23.5624 54.6072 25.6659 51.939 25.6659C51.7837 25.6659 51.3602 25.6235 51.3602 25.4118L51.3319 25.3835ZM55.299 41.9294C58.1225 42.0847 60.4378 41.3224 62.1884 39.7129C63.9108 38.1459 64.8849 35.8024 64.8849 33.2894C64.8849 31.8635 64.3766 30.8471 63.2613 29.9576C67.4402 30.8188 71.9155 32.9506 74.2308 36.2965C73.0308 35.8729 72.2825 35.76 71.5061 35.76C70.899 35.76 70.3766 36.4235 70.3766 37.2141C70.3766 37.6235 70.5319 38.1176 70.7437 38.7388C71.379 40.6729 72.3814 43.7929 69.7696 47.7176C69.8261 46.0941 69.4025 44.7953 68.8943 44.1459C68.5272 43.6941 68.1602 43.6094 67.9202 43.6094C67.1155 43.6094 66.6919 44.3718 66.099 45.4306C65.0402 47.3506 63.3178 50.4706 57.8543 51.9953C58.6308 50.8094 58.899 49.5247 58.6166 48.8329C58.4755 48.4941 58.1931 48.2824 57.8543 48.2824H57.8402C57.3178 48.3106 56.6684 48.4941 55.9061 48.7059C53.4496 49.3976 49.8213 50.4 46.0802 47.3929C46.8425 47.3365 47.5061 47.0965 47.9437 46.7153C48.2684 46.4329 48.4378 46.0941 48.4378 45.7553C48.4378 45.2329 48.0143 44.8376 47.4778 44.3435C46.4049 43.3553 44.9931 42.0424 46.1225 39.3176C46.2778 39.9106 46.5461 40.4471 46.9272 40.8706C47.379 41.3788 47.9296 41.6612 48.4237 41.6612C49.5249 41.6612 49.5249 40.7153 49.5249 40.0941C49.5249 39.2753 50.2731 38.5553 51.1202 38.5553C53.5343 38.5553 54.4378 42.1129 53.6331 44.0329C54.4378 43.4118 55.059 42.5082 55.2849 41.9012L55.299 41.9294ZM73.1013 51.4729C69.0778 54.5082 63.7272 56.2588 58.419 56.2588C45.219 56.2588 38.3155 48.8894 38.3155 41.6188C38.3155 37.2988 41.5343 32.7953 46.9272 32.7953C50.1037 32.7953 55.059 34.3624 54.4378 40.5459C54.339 39.9247 53.5343 37.7082 51.1202 37.7082C49.779 37.7082 48.6496 38.8094 48.6496 40.1224C48.6496 40.6588 48.5225 40.8 48.4237 40.8C47.5343 40.8 46.419 39.4871 46.6449 37.2988C43.1861 41.1529 45.6566 43.8918 46.8566 45.0071C47.1249 45.2612 47.5343 45.6424 47.5343 45.7694C47.5343 46.1506 46.5461 46.7718 44.0613 46.5459C48.3955 51.7129 53.4496 50.3153 56.1178 49.5671C56.7813 49.3835 57.5861 49.0306 57.7837 49.3412C58.1366 49.8212 57.1908 52.0376 55.9202 53.1953C63.219 52.2353 65.619 48.0424 66.8331 45.8541C67.2425 45.12 67.5955 44.4847 67.8778 44.4847C68.6402 44.4847 69.3178 47.5906 68.8096 49.9765C73.6519 45.4729 72.2543 40.6306 71.5484 38.4565C71.379 37.9341 71.2237 37.4682 71.2237 37.2C71.2237 36.8047 71.3508 36.6918 71.6331 36.6212C72.8472 36.6212 74.259 37.0588 75.939 37.8494C71.4637 27.3741 55.9766 28.8 52.2072 26.4847C55.059 26.3294 58.6731 24.24 61.8496 22.1929C62.979 21.4729 63.8402 20.7388 64.5461 20.16C65.2802 19.5529 65.9155 19.0165 66.2543 19.0165C67.2002 19.0165 67.3272 21.7835 66.8472 23.4776C69.2049 21.9529 70.3202 19.68 70.3202 17.5341C70.3202 15.3882 69.1484 14.0753 68.3578 13.2C68.1178 12.9318 67.7931 12.5647 67.779 12.4235C67.779 12.3106 67.8637 12.1553 68.0472 12.0282C68.8519 11.4353 70.4472 11.2094 72.099 11.5906C68.4708 6.91765 63.9531 8.24471 61.4825 9.06353C60.7343 9.30353 59.619 9.65647 59.619 9.34588C59.619 8.47059 60.7908 6.66353 62.8519 5.40706C58.6308 5.12471 52.8143 8.30118 48.6355 10.5318C45.219 12.3529 42.0002 14.0753 40.1508 14.0753C39.0072 14.0753 38.6119 13.6659 38.6119 13.2424C38.6261 10.0941 49.8496 1.62353 61.6943 1.62353C66.1837 1.62353 69.8543 2.73882 72.3108 4.82824C74.4425 6.64941 75.6143 9.21882 75.6143 12.0565C75.6143 16.4188 73.5531 19.44 72.3108 21.2329C71.6755 22.1647 71.3225 22.6729 71.3225 23.2094C71.3225 24.0565 72.1131 24.6353 73.4119 25.5953C75.9813 27.4871 80.2731 30.6494 80.2731 37.1435C80.2731 44.4988 76.3766 48.9741 73.1155 51.4447L73.1013 51.4729Z" fill="#231F20"/>
</svg>
