<svg width="120" height="60" viewBox="0 0 120 60" fill="none" xmlns="http://www.w3.org/2000/svg">
<path fill-rule="evenodd" clip-rule="evenodd" d="M67.497 2.03361C68.1464 1.6242 68.937 1.25714 69.7276 1.48302C70.4194 1.75126 70.6594 2.55596 70.6453 3.23361C70.6453 11.7042 70.6453 20.1889 70.6453 28.6595C78.6641 28.6595 86.6829 28.6595 94.7017 28.6595C95.337 28.6595 96.1135 28.8713 96.3676 29.5207C96.6359 30.2971 96.2264 31.0877 95.8735 31.7654C93.77 35.6336 91.5817 39.4454 89.3512 43.2289C88.6876 44.1042 87.8123 44.9371 86.7253 45.1913C85.8076 45.4171 84.8617 45.403 83.93 45.4171C81.2759 45.4171 78.6076 45.4171 75.9535 45.4171C74.7959 45.4171 73.497 45.4595 72.5794 46.2783C71.817 46.9983 71.9159 48.1701 72.2123 49.1018C72.8617 51.0642 74.09 52.7583 75.0076 54.5936C74.0617 53.9583 73.1582 53.2807 72.2829 52.5607C69.5864 50.1748 67.1017 47.5207 65.0123 44.5701C58.7441 35.8877 55.497 25.243 54.9041 14.6124C54.8053 12.283 55.7512 9.72773 57.8406 8.49949C61.0594 6.33949 64.2782 4.17949 67.497 2.01949V2.03361Z" fill="#39BA9A"/>
<path fill-rule="evenodd" clip-rule="evenodd" d="M24.0985 19.0135C24.4373 18.3218 25.2703 18.0959 25.9761 18.11C30.8467 18.11 35.7173 18.11 40.5738 18.11C41.4208 18.1241 42.3103 18.1665 43.0585 18.5759C43.835 18.9994 44.4138 19.6629 45.0067 20.2982C46.7856 22.3171 48.5503 24.35 50.3291 26.3688C50.4279 26.4818 50.6114 26.7076 50.7526 26.51C51.7267 25.4512 52.6585 24.3359 53.6326 23.2771C54.4373 28.4441 56.442 33.3853 59.1526 37.8465C62.5973 43.4935 67.1291 48.4347 72.2679 52.5712C73.1432 53.2912 74.0467 53.9688 74.9926 54.6041C75.5856 55.2394 76.1361 55.917 76.7009 56.5665C77.1244 57.0606 77.4209 57.7665 77.1526 58.4018C76.8561 59.037 76.122 59.2912 75.4726 59.2771C70.5597 59.2771 65.6326 59.2771 60.7197 59.2771C59.9008 59.2771 59.0256 59.2488 58.2773 58.8818C57.4867 58.4723 56.8797 57.8088 56.2867 57.1594C54.5361 55.1688 52.7856 53.1782 51.0491 51.1876C50.922 51.0323 50.7526 50.9053 50.5832 50.7923C48.7338 52.8676 46.9126 54.9712 45.0632 57.0606C44.4561 57.7382 43.835 58.43 43.0303 58.8676C42.282 59.2629 41.4067 59.2912 40.5879 59.2912C35.6608 59.2912 30.7479 59.2912 25.8208 59.2912C25.115 59.3053 24.2679 59.0088 24.0561 58.2747C23.8444 57.5265 24.2961 56.8206 24.7761 56.2982C29.8867 50.4253 34.9973 44.5665 40.122 38.7218C34.9832 32.7923 29.802 26.9194 24.6632 20.99C24.1832 20.4676 23.8161 19.7194 24.0985 19.0135Z" fill="#15489D"/>
</svg>
