<svg width="120" height="60" viewBox="0 0 120 60" fill="none" xmlns="http://www.w3.org/2000/svg">
<path fill-rule="evenodd" clip-rule="evenodd" d="M58.3388 30.7812C57.8305 29.2565 57.3364 27.7318 56.8282 26.2212L55.6988 27.6894V30.7812C55.6988 31.5435 55.2893 32.0236 54.3999 32.0236H53.8635V21.2094H54.2588C54.4564 21.2094 54.5976 21.2094 54.7952 21.2377C55.4164 21.3647 55.7129 21.8024 55.7129 22.4377V25.8118L58.9458 21.76C59.3976 21.1953 59.6658 21.1953 60.3999 21.1953H60.654C59.7929 22.3388 58.9458 23.4683 58.0846 24.6118C58.9599 27.0824 59.8352 29.5388 60.7105 32.0094H60.4282C60.0046 32.0094 59.6093 32.0235 59.214 31.84C58.9458 31.713 58.7341 31.5294 58.5788 31.2894C58.4658 31.12 58.3952 30.9506 58.3388 30.7671V30.7812Z" fill="#04A44E"/>
<path fill-rule="evenodd" clip-rule="evenodd" d="M66.2591 26.758C66.2309 26.2498 66.1744 25.8263 66.0897 25.4733C65.6662 23.4827 63.6615 23.6804 63.1956 25.4592C63.0968 25.8121 63.0544 26.2498 63.0403 26.758H66.2591ZM67.5156 30.6263C67.0638 31.6569 65.9768 32.038 64.805 32.038C63.0121 32.038 62.0238 31.0216 61.5862 29.6804C61.2756 28.7486 61.1909 27.591 61.3462 26.518C61.6003 24.8663 62.5603 23.1016 64.5791 23.1016C67.4874 23.1016 67.8121 25.4451 67.9109 27.5345H63.0403C62.9838 28.791 63.2379 31.0922 65.045 31.0922C65.525 31.0922 65.8921 31.0074 66.1462 30.8239C66.5838 30.5557 66.9368 30.3157 67.5015 30.6121L67.5156 30.6263Z" fill="#04A44E"/>
<path fill-rule="evenodd" clip-rule="evenodd" d="M70.5366 30.7251C70.8613 30.951 71.2425 31.0639 71.6942 31.0639C72.1742 31.0639 72.5131 30.951 72.7531 30.711C72.979 30.471 73.0919 30.1745 73.0919 29.8216C73.0919 29.5674 73.0495 29.3557 72.979 29.1863C72.8942 29.0169 72.7954 28.8616 72.6684 28.7486C72.5413 28.6216 72.4001 28.5227 72.2448 28.4521C72.0895 28.3674 71.9201 28.2969 71.7507 28.2404C71.3837 28.0992 71.0307 27.9439 70.7201 27.7886C70.4095 27.6192 70.1413 27.4357 69.9154 27.238C69.6895 27.0404 69.506 26.8004 69.379 26.5322C69.2519 26.2639 69.1813 25.9674 69.1813 25.6145C69.1813 25.191 69.2519 24.8239 69.3931 24.5133C69.5343 24.2027 69.7319 23.9345 69.986 23.7227C70.2401 23.511 70.5366 23.3557 70.8895 23.2569C71.2425 23.1439 71.6237 23.1016 72.0331 23.1016C72.5272 23.1016 73.0072 23.1863 73.4448 23.3557C73.8825 23.5251 74.2072 23.8498 74.4048 24.3016C73.8119 24.7251 73.4307 24.4286 73.0495 24.2733C72.979 24.231 72.9084 24.2027 72.8378 24.1745C72.626 24.0898 72.4001 24.0616 72.1601 24.0616C71.9625 24.0616 71.779 24.0898 71.5954 24.1322C71.4119 24.1745 71.2566 24.2451 71.1154 24.3439C70.9743 24.4427 70.8754 24.5698 70.7907 24.711C70.706 24.8521 70.6778 25.0357 70.6778 25.2474C70.6778 25.6004 70.7766 25.8686 70.9884 26.0663C71.2001 26.2639 71.4543 26.4192 71.7648 26.5463C72.0754 26.6733 72.4143 26.8004 72.7672 26.9133C73.1201 27.0263 73.459 27.1816 73.7695 27.3792C74.0801 27.5769 74.3343 27.831 74.546 28.1416C74.7578 28.4521 74.8566 28.8757 74.8566 29.4263C74.8566 29.8357 74.786 30.2027 74.6307 30.5274C74.4754 30.8521 74.2637 31.1204 74.0095 31.3463C73.7413 31.5722 73.4307 31.7416 73.0637 31.8545C72.6966 31.9816 72.3013 32.038 71.8778 32.038C71.1719 32.038 70.5648 31.8969 70.0707 31.6286C69.5766 31.3604 69.1954 30.951 68.9695 30.4004C69.1672 30.2733 69.4778 30.0898 69.8872 30.231C70.1554 30.3298 70.3107 30.5416 70.5366 30.6969V30.7251Z" fill="#04A44E"/>
<path fill-rule="evenodd" clip-rule="evenodd" d="M88.7337 25.4603C88.7337 25.0227 88.6349 24.7121 88.4373 24.5568C88.2396 24.4015 87.9149 24.3168 87.4914 24.3168C87.1384 24.3168 86.8137 24.4015 86.5032 24.5568C86.1926 24.7121 85.9808 24.8956 85.8396 25.0933V30.8251C85.8396 31.4462 85.5714 31.8698 84.9784 31.9968C84.809 32.0251 84.6537 32.0251 84.4702 32.0251H84.1031V21.2109H84.4702C84.6537 21.2109 84.7949 21.2109 84.9784 21.2392C85.5714 21.3521 85.8396 21.7756 85.8396 22.3827V24.1898C86.0655 23.9074 86.4043 23.6533 86.842 23.4415C87.2796 23.2298 87.802 23.1168 88.3949 23.1168C89.1008 23.1168 89.6231 23.3003 89.9761 23.6674C90.3149 24.0345 90.4984 24.5851 90.4984 25.3615V32.0392H90.1314C89.9479 32.0392 89.8067 32.0392 89.6231 32.0109C89.0302 31.898 88.762 31.4745 88.762 30.8674V25.4886L88.7337 25.4603Z" fill="#04A44E"/>
<path fill-rule="evenodd" clip-rule="evenodd" d="M96.2872 30.8083C96.0895 31.1895 95.7931 31.4859 95.3978 31.6977C95.0025 31.9095 94.5366 32.0224 94.0143 32.0224C93.2095 32.0224 92.6025 31.8106 92.2072 31.3871C91.8119 30.9636 91.6143 30.3848 91.6143 29.6365C91.6143 28.8883 91.7696 28.3236 92.0801 27.9283C92.3907 27.533 92.8848 27.2224 93.5343 27.0106C93.746 26.9401 93.9719 26.8836 94.226 26.8412C94.466 26.7989 94.706 26.7565 94.9319 26.7142C95.1578 26.6718 95.3837 26.6295 95.5954 26.5589C96.0754 26.4177 96.1319 26.2906 96.1319 25.9377C96.1319 25.7683 96.1319 25.613 96.1319 25.4436C96.1319 24.9918 96.0331 24.653 95.8354 24.4271C95.6378 24.2012 95.2707 24.0742 94.7201 24.0742C94.3107 24.0742 93.9578 24.1589 93.6472 24.3283C93.0684 24.653 92.8143 24.9212 92.066 24.5401C92.3484 24.0177 92.7437 23.6506 93.2378 23.4248C93.7319 23.1989 94.2684 23.0859 94.8472 23.0859C95.2566 23.0859 95.6519 23.1142 96.019 23.1706C96.386 23.2271 96.7107 23.3542 96.979 23.5236C97.2472 23.693 97.459 23.933 97.6143 24.2436C97.7696 24.5542 97.8543 24.9495 97.8543 25.4577V30.5401V32.0083C97.8543 32.0083 97.5719 32.0083 97.3743 32.0083C96.5554 32.0083 96.2872 31.5565 96.2731 30.7942L96.2872 30.8083ZM96.1601 27.0812C95.9625 27.1801 95.7366 27.2648 95.4684 27.3212C95.2001 27.3777 94.946 27.4483 94.706 27.5189C94.2119 27.6601 93.859 27.9001 93.6472 28.1965C93.4354 28.493 93.3225 28.9024 93.3225 29.3824C93.3225 29.933 93.4213 30.3424 93.6331 30.5965C93.8448 30.8506 94.1695 30.9777 94.6213 30.9777C94.9601 30.9777 95.2707 30.893 95.539 30.7236C95.8072 30.5542 96.0048 30.3283 96.1601 30.0318V27.0671V27.0812Z" fill="#04A44E"/>
<path fill-rule="evenodd" clip-rule="evenodd" d="M104.038 31.4432C103.77 31.655 103.487 31.7962 103.191 31.8809C102.894 31.9656 102.513 32.022 102.047 32.022C101.299 32.022 100.72 31.7962 100.297 31.3585C99.8731 30.9209 99.6614 30.3138 99.6614 29.5232V23.9609H99.379C98.899 23.9467 98.6449 23.862 98.6449 23.0856H99.6614V21.1797H100.028C100.212 21.1797 100.353 21.1797 100.537 21.2079C101.13 21.3209 101.398 21.7444 101.398 22.3514V23.0856H102.414C102.894 23.0856 103.148 23.1703 103.148 23.9609H101.384V29.5232C101.384 30.0032 101.483 30.3844 101.68 30.6526C101.878 30.9209 102.203 31.062 102.64 31.062C102.795 31.062 102.951 31.062 103.064 31.0338C103.572 30.9491 103.826 31.0338 104.024 31.4432H104.038Z" fill="#04A44E"/>
<path fill-rule="evenodd" clip-rule="evenodd" d="M116.857 25.4607C116.857 25.0231 116.758 24.7125 116.56 24.5572C116.363 24.4019 116.038 24.3172 115.615 24.3172C115.262 24.3172 114.937 24.4019 114.626 24.5572C114.316 24.7125 114.104 24.896 113.963 25.0937V30.8254C113.963 31.4466 113.695 31.8701 113.102 31.9972C112.932 32.0254 112.777 32.0254 112.593 32.0254H112.226V23.1172H112.593C112.777 23.1172 112.918 23.1172 113.102 23.1454C113.652 23.2584 113.935 23.6395 113.963 24.1901C114.189 23.9078 114.528 23.6537 114.965 23.4419C115.403 23.2301 115.925 23.1172 116.518 23.1172C117.224 23.1172 117.746 23.3007 118.099 23.6678C118.438 24.0348 118.622 24.5854 118.622 25.3619V32.0395H118.255C118.071 32.0395 117.93 32.0395 117.746 32.0113C117.153 31.8984 116.885 31.4748 116.885 30.8678V25.489L116.857 25.4607Z" fill="#04A44E"/>
<path fill-rule="evenodd" clip-rule="evenodd" d="M81.0122 26.758C80.984 26.2498 80.9275 25.8263 80.8428 25.4733C80.4193 23.4827 78.4145 23.6804 77.9487 25.4592C77.8498 25.8121 77.8075 26.2498 77.7934 26.758H81.0122ZM79.5722 32.038C77.7793 32.038 76.791 31.0216 76.3534 29.6804C76.0428 28.7486 75.944 27.591 76.1134 26.518C76.3675 24.8663 77.3416 23.1016 79.3463 23.1016C82.2545 23.1016 82.5793 25.4451 82.6781 27.5345H77.8075C77.751 28.791 78.0051 31.0922 79.8122 31.0922C80.2922 31.0922 80.6593 31.0074 80.9134 30.8239C81.351 30.5557 81.704 30.3157 82.2687 30.6121C82.2687 30.6121 80.7298 32.0239 79.5581 32.0239L79.5722 32.038Z" fill="#04A44E"/>
<path fill-rule="evenodd" clip-rule="evenodd" d="M109.346 30.8083C109.148 31.1895 108.852 31.4859 108.457 31.6977C108.061 31.9095 107.595 32.0224 107.073 32.0224C106.268 32.0224 105.661 31.8106 105.266 31.3871C104.871 30.9636 104.673 30.3848 104.673 29.6365C104.673 28.8883 104.828 28.3236 105.139 27.9283C105.45 27.533 105.944 27.2224 106.593 27.0106C106.805 26.9401 107.045 26.8836 107.285 26.8412C107.525 26.7989 107.765 26.7565 107.991 26.7142C108.217 26.6718 108.442 26.6295 108.654 26.5589C109.134 26.4177 109.191 26.2906 109.191 25.9377C109.191 25.7683 109.191 25.613 109.191 25.4436C109.191 24.9918 109.092 24.653 108.894 24.4271C108.697 24.2012 108.33 24.0742 107.779 24.0742C107.37 24.0742 107.017 24.1589 106.706 24.3283C106.127 24.653 105.873 24.9212 105.125 24.5401C105.407 24.0177 105.802 23.6506 106.297 23.4248C106.791 23.1989 107.327 23.0859 107.906 23.0859C108.315 23.0859 108.711 23.1142 109.078 23.1706C109.445 23.2271 109.77 23.3542 110.038 23.5236C110.306 23.693 110.518 23.933 110.673 24.2436C110.828 24.5542 110.913 24.9495 110.913 25.4577V30.5401V32.0083C110.913 32.0083 110.631 32.0083 110.433 32.0083C109.614 32.0083 109.346 31.5565 109.332 30.7942L109.346 30.8083ZM109.219 27.0812C109.021 27.1801 108.795 27.2648 108.527 27.3212C108.259 27.3777 108.005 27.4483 107.765 27.5189C107.271 27.6601 106.918 27.9001 106.706 28.1965C106.494 28.493 106.381 28.9024 106.381 29.3824C106.381 29.933 106.48 30.3424 106.692 30.5965C106.904 30.8506 107.228 30.9777 107.68 30.9777C108.019 30.9777 108.33 30.893 108.598 30.7236C108.866 30.5542 109.064 30.3283 109.219 30.0318V27.0671V27.0812Z" fill="#04A44E"/>
<path fill-rule="evenodd" clip-rule="evenodd" d="M23.9344 32.0329V21.2188H27.5062C29.525 21.2188 30.4286 22.5599 30.245 24.3246C30.1603 25.1293 29.8638 25.9764 29.0733 26.414C30.9933 27.0211 31.0074 29.9576 29.8638 31.214C29.3838 31.7505 28.5933 32.0329 27.5344 32.0329H23.9203H23.9344ZM27.0827 31.1011C27.6474 31.1011 28.0709 30.9317 28.3391 30.607C28.6074 30.2823 28.7486 29.7458 28.7486 29.0117C28.7486 28.0799 28.6215 27.1199 27.3933 26.9364H25.7556V31.1011H27.0827ZM27.0968 26.0893C28.2544 26.047 28.565 25.0164 28.565 24.1411C28.565 23.2235 28.4803 22.1929 27.2803 22.1929H25.7415V26.0893H27.0827H27.0968Z" fill="#1C4481"/>
<path fill-rule="evenodd" clip-rule="evenodd" d="M35.5248 26.8862C35.8213 26.8862 36.0613 26.8439 36.273 26.7733C36.4707 26.6886 36.6401 26.5615 36.7672 26.3639C36.8942 26.1803 36.993 25.9262 37.0495 25.6156C37.106 25.3051 37.1342 24.9239 37.1342 24.458C37.1342 23.9921 37.106 23.6392 37.0636 23.3427C37.0213 23.0462 36.9366 22.8203 36.8377 22.6509C36.7389 22.4815 36.5977 22.3686 36.4283 22.298C36.2589 22.2274 36.0613 22.1992 35.8072 22.1992H34.3672V26.8862H35.5248ZM32.546 21.2251H36.0754C36.6119 21.2251 37.0636 21.2815 37.4307 21.3945C37.7977 21.5074 38.1083 21.6768 38.3342 21.9027C38.5601 22.1286 38.7295 22.4109 38.8283 22.7498C38.9272 23.0886 38.9836 23.498 38.9836 23.9498C38.9836 24.6839 38.9272 25.2909 38.8142 25.7851C38.7013 26.2792 38.5319 26.6745 38.2636 26.9851C38.0095 27.2815 37.6707 27.5074 37.2613 27.6345C36.8377 27.7615 36.3295 27.8321 35.7083 27.8321H34.3672V30.7827C34.3672 31.5451 33.9577 32.0251 33.0683 32.0251H32.5319V21.2109L32.546 21.2251Z" fill="#1C4481"/>
<path fill-rule="evenodd" clip-rule="evenodd" d="M40.9457 21.2188H41.3269C41.5104 21.2188 41.6657 21.2188 41.8493 21.247C42.4704 21.3599 42.7528 21.8117 42.7528 22.447V29.3505C42.7528 31.1435 41.7363 32.047 39.6893 32.047C39.5904 32.047 39.4916 32.047 39.4069 32.047C38.7434 32.047 38.1504 31.8776 37.6422 31.567C37.1199 31.2423 36.7387 30.7905 36.4846 30.1976C36.9081 30.014 37.2751 29.9293 37.6704 30.2258C37.8257 30.3388 37.9669 30.494 38.1222 30.607C38.3057 30.734 38.5175 30.8329 38.7434 30.8893C39.2375 31.0164 39.9434 31.0164 40.4093 30.7482C40.8893 30.4658 40.9316 29.9435 40.9316 29.4493V21.2329L40.9457 21.2188Z" fill="#1C4481"/>
<path fill-rule="evenodd" clip-rule="evenodd" d="M45.9434 30.6133C46.2822 30.8533 46.6916 30.9662 47.1999 30.9662C47.4399 30.9662 47.6658 30.9239 47.8775 30.8533C48.0893 30.7686 48.2869 30.6698 48.4422 30.5286C48.6116 30.3874 48.7387 30.218 48.8234 30.0062C48.9222 29.8086 48.9646 29.5686 48.9646 29.3145C48.9646 29.0886 48.9364 28.8909 48.8658 28.7074C48.7952 28.538 48.7105 28.3827 48.5834 28.2415C48.4705 28.1003 48.3293 27.9874 48.1599 27.8603C48.0046 27.7474 47.8211 27.6345 47.6375 27.5074C47.214 27.2533 46.8328 26.9992 46.4658 26.7592C46.0987 26.5192 45.8022 26.2651 45.534 25.9827C45.2658 25.7145 45.054 25.4039 44.9128 25.0792C44.7575 24.7545 44.6869 24.3592 44.6869 23.8933C44.6869 23.498 44.7575 23.1451 44.8846 22.8203C45.0258 22.4956 45.2093 22.2133 45.4775 21.9733C45.7316 21.7333 46.0564 21.5356 46.4234 21.4086C46.7905 21.2674 47.2281 21.2109 47.7081 21.2109C48.3293 21.2109 48.8799 21.338 49.3316 21.6062C49.7834 21.8745 50.094 22.2556 50.2493 22.7356C49.7269 22.9756 49.3458 22.8486 48.9081 22.5098C48.6399 22.3262 48.3152 22.2274 47.9481 22.2274C47.4258 22.2274 47.0163 22.3545 46.734 22.6227C46.4516 22.8909 46.2964 23.258 46.2964 23.738C46.2964 24.1333 46.4093 24.4721 46.6211 24.7262C46.8469 24.9945 47.1152 25.2345 47.4399 25.4462C47.7646 25.658 48.1316 25.8698 48.5128 26.0533C48.894 26.2509 49.2611 26.4768 49.5858 26.7309C49.9105 26.9851 50.1928 27.3098 50.4046 27.6627C50.6305 28.0298 50.7293 28.4815 50.7293 29.0321C50.7293 29.4556 50.6587 29.8509 50.4893 30.218C50.334 30.5851 50.1081 30.8956 49.8116 31.1639C49.5152 31.4321 49.1622 31.6298 48.7246 31.7851C48.3011 31.9403 47.8069 32.0109 47.2705 32.0109C46.5787 32.0109 45.9575 31.8556 45.4352 31.5309C44.9128 31.2062 44.5175 30.7545 44.2775 30.1615C44.7011 29.978 45.0681 29.8933 45.4634 30.1898C45.6187 30.3168 45.7458 30.458 45.9152 30.5709L45.9434 30.6133Z" fill="#1C4481"/>
<path fill-rule="evenodd" clip-rule="evenodd" d="M106.946 38.3441C106.946 38.2029 106.918 38.0618 106.89 37.9488C106.847 37.8359 106.791 37.7229 106.706 37.6382C106.621 37.5394 106.523 37.4406 106.424 37.37C106.311 37.2994 106.212 37.2288 106.085 37.1723C105.972 37.1159 105.845 37.0594 105.732 37.0029C105.619 36.9465 105.506 36.9041 105.407 36.8476C105.309 36.7912 105.224 36.7347 105.153 36.6641C105.111 36.6218 105.083 36.5794 105.054 36.537C105.026 36.4947 105.012 36.4523 104.998 36.41C104.998 36.3676 104.998 36.3253 104.998 36.2688C104.998 36.1841 105.012 36.0994 105.054 36.0147C105.097 35.93 105.153 35.8594 105.252 35.7888C105.309 35.7465 105.393 35.7182 105.492 35.69C105.591 35.6617 105.718 35.6617 105.859 35.6617C105.944 35.6617 106.014 35.6617 106.085 35.6759C106.156 35.6759 106.226 35.7041 106.283 35.7182C106.381 35.7323 106.452 35.7606 106.523 35.7888C106.579 35.817 106.636 35.8312 106.664 35.8453C106.706 35.8594 106.72 35.8735 106.734 35.8876L106.579 35.2382C106.579 35.2382 106.565 35.2241 106.523 35.21C106.494 35.1959 106.438 35.1676 106.367 35.1535C106.297 35.1253 106.198 35.1112 106.085 35.097C105.972 35.0829 105.831 35.0688 105.661 35.0688C105.534 35.0688 105.407 35.0688 105.28 35.097C105.153 35.1253 105.04 35.1535 104.927 35.21C104.814 35.2665 104.716 35.337 104.617 35.4217C104.532 35.4923 104.461 35.5912 104.405 35.6759C104.349 35.7606 104.306 35.8594 104.292 35.9582C104.264 36.057 104.25 36.1559 104.25 36.2406C104.25 36.3535 104.25 36.4523 104.278 36.5512C104.306 36.65 104.334 36.7488 104.377 36.8476C104.433 36.9465 104.504 37.0312 104.603 37.1159C104.687 37.1865 104.786 37.257 104.899 37.3135C105.012 37.37 105.125 37.4265 105.238 37.4829C105.351 37.5394 105.464 37.5959 105.577 37.6523C105.69 37.7088 105.803 37.7794 105.901 37.8641C105.972 37.9206 106.014 37.9629 106.057 38.0194C106.099 38.0759 106.127 38.1323 106.156 38.1888C106.17 38.2453 106.184 38.33 106.184 38.4006C106.184 38.5276 106.156 38.6406 106.113 38.7253C106.071 38.81 106 38.8947 105.901 38.9512C105.859 38.9935 105.803 39.0217 105.732 39.0359C105.661 39.0641 105.605 39.0641 105.534 39.0782C105.464 39.0782 105.407 39.0923 105.351 39.0923C105.294 39.0923 105.266 39.0923 105.238 39.0923C105.167 39.0923 105.097 39.0923 105.04 39.0923C104.97 39.0923 104.913 39.0782 104.843 39.0641C104.701 39.0359 104.589 39.0076 104.504 38.9794C104.405 38.9512 104.334 38.937 104.292 38.9088C104.25 38.8947 104.221 38.8806 104.207 38.8806L104.363 39.53L104.419 39.5582C104.419 39.5582 104.518 39.6006 104.603 39.6288C104.687 39.657 104.786 39.6712 104.913 39.6994C105.04 39.7135 105.181 39.7276 105.365 39.7276C105.506 39.7276 105.633 39.7276 105.789 39.6994C105.93 39.6712 106.085 39.6429 106.212 39.5723C106.353 39.5159 106.48 39.4312 106.593 39.3323C106.706 39.2335 106.791 39.0923 106.861 38.937C106.932 38.7817 106.96 38.5841 106.96 38.3441H106.946ZM110.193 37.9912C110.193 37.8076 110.179 37.6241 110.151 37.4547C110.123 37.2853 110.08 37.1159 110.01 36.9747C109.953 36.8335 109.854 36.6923 109.756 36.5794C109.643 36.4665 109.516 36.3818 109.36 36.3112C109.205 36.2547 109.021 36.2123 108.81 36.2123C108.598 36.2123 108.414 36.2406 108.259 36.3112C108.104 36.3676 107.963 36.4665 107.85 36.5794C107.737 36.6923 107.652 36.8194 107.581 36.9747C107.511 37.13 107.468 37.2853 107.426 37.4688C107.398 37.6382 107.384 37.8217 107.384 38.0194C107.384 38.2735 107.412 38.5135 107.454 38.7253C107.511 38.937 107.581 39.1206 107.694 39.2759C107.807 39.4312 107.949 39.5441 108.132 39.6288C108.316 39.7135 108.527 39.7559 108.796 39.7559C109.007 39.7559 109.205 39.7135 109.374 39.6288C109.544 39.5441 109.685 39.417 109.812 39.2617C109.925 39.1065 110.024 38.9229 110.08 38.7112C110.137 38.4994 110.179 38.2735 110.179 38.0335L110.193 37.9912ZM109.516 37.9912C109.516 38.2312 109.487 38.4429 109.445 38.6123C109.403 38.7959 109.318 38.9229 109.219 39.0359C109.12 39.1347 108.993 39.1912 108.838 39.1912C108.669 39.1912 108.513 39.1488 108.4 39.0641C108.287 38.9794 108.203 38.8523 108.16 38.6688C108.104 38.4994 108.09 38.2594 108.09 37.9912C108.09 37.8217 108.09 37.6665 108.118 37.5112C108.132 37.3559 108.174 37.2147 108.231 37.1017C108.287 36.9888 108.358 36.89 108.457 36.8194C108.556 36.7488 108.683 36.7065 108.838 36.7065C108.965 36.7065 109.064 36.7347 109.149 36.7912C109.233 36.8476 109.304 36.9182 109.346 37.0029C109.403 37.0876 109.431 37.1865 109.459 37.2994C109.487 37.4123 109.501 37.5253 109.516 37.6382C109.516 37.7512 109.516 37.8782 109.516 37.9912ZM112.791 38.697C112.791 38.5276 112.749 38.3865 112.678 38.2735C112.607 38.1465 112.523 38.0476 112.396 37.9629C112.283 37.8782 112.141 37.8076 112 37.737C111.93 37.7088 111.859 37.6806 111.774 37.6382C111.704 37.61 111.633 37.5676 111.563 37.5253C111.492 37.4829 111.45 37.4265 111.407 37.37C111.365 37.3135 111.351 37.2429 111.351 37.1723C111.351 37.0312 111.393 36.9323 111.492 36.8618C111.577 36.7912 111.704 36.7488 111.873 36.7488C112 36.7488 112.113 36.7488 112.212 36.777C112.311 36.8053 112.396 36.8335 112.452 36.8618C112.523 36.89 112.565 36.9323 112.593 36.9465L112.65 36.9888L112.565 36.4382C112.565 36.4382 112.551 36.4382 112.523 36.41C112.494 36.3818 112.438 36.3535 112.381 36.3253C112.311 36.297 112.226 36.2688 112.127 36.2547C112.014 36.2406 111.887 36.2265 111.746 36.2265C111.605 36.2265 111.478 36.2406 111.351 36.2829C111.224 36.3253 111.125 36.3817 111.026 36.4523C110.927 36.537 110.857 36.6217 110.814 36.7488C110.758 36.8617 110.73 36.9888 110.73 37.1441C110.73 37.2994 110.758 37.4265 110.814 37.5394C110.871 37.6523 110.927 37.737 111.012 37.8218C111.097 37.8923 111.196 37.9629 111.28 38.0194C111.379 38.0759 111.478 38.1182 111.577 38.1606C111.676 38.2029 111.774 38.2594 111.859 38.3018C111.944 38.3582 112.014 38.4147 112.057 38.4712C112.113 38.5417 112.141 38.6123 112.141 38.7112C112.141 38.8665 112.099 38.9794 112 39.05C111.916 39.1206 111.76 39.1629 111.577 39.1629C111.464 39.1629 111.351 39.1488 111.238 39.1065C111.125 39.0782 111.026 39.0359 110.941 39.0076C110.857 38.9653 110.786 38.937 110.73 38.8947C110.673 38.8665 110.659 38.8523 110.645 38.8523L110.73 39.5017C110.73 39.5017 110.828 39.5582 110.913 39.5865C110.998 39.6147 111.097 39.657 111.224 39.6712C111.351 39.6994 111.492 39.6994 111.676 39.6994C111.845 39.6994 112 39.6712 112.141 39.6147C112.283 39.5582 112.41 39.4876 112.523 39.3888C112.607 39.3182 112.678 39.2053 112.734 39.0923C112.791 38.9794 112.819 38.8382 112.819 38.6829L112.791 38.697ZM114.09 35.4076C114.09 35.4076 114.076 35.2806 114.033 35.2382C114.005 35.1959 113.963 35.1535 113.906 35.1253C113.85 35.097 113.793 35.0829 113.709 35.0829C113.638 35.0829 113.567 35.097 113.511 35.1253C113.454 35.1535 113.412 35.1959 113.384 35.2382C113.356 35.2947 113.341 35.337 113.341 35.3935C113.341 35.4641 113.356 35.5206 113.384 35.5629C113.412 35.6194 113.454 35.6476 113.511 35.69C113.567 35.7182 113.638 35.7323 113.709 35.7323C113.779 35.7323 113.85 35.7182 113.906 35.69C113.963 35.6617 114.005 35.6194 114.033 35.5629C114.061 35.5065 114.076 35.45 114.076 35.3935L114.09 35.4076ZM114.033 36.2688H113.398V39.657H114.033V36.2688ZM117.181 39.657V37.4406C117.181 37.2994 117.181 37.1723 117.167 37.0594C117.153 36.9465 117.125 36.8617 117.083 36.777C117.04 36.6923 116.984 36.6076 116.913 36.537C116.814 36.4382 116.687 36.3535 116.532 36.297C116.377 36.2406 116.165 36.2123 115.939 36.1982C115.798 36.1982 115.671 36.1982 115.572 36.2265C115.473 36.2547 115.374 36.2688 115.304 36.297C115.233 36.3253 115.177 36.3535 115.149 36.3676C115.106 36.3959 115.092 36.3959 115.092 36.3959L114.979 36.9888C114.979 36.9888 114.993 36.9747 115.036 36.9465C115.064 36.9182 115.12 36.8759 115.191 36.8476C115.261 36.8053 115.346 36.777 115.459 36.7488C115.558 36.7206 115.685 36.6923 115.826 36.6923C115.996 36.6923 116.137 36.7206 116.236 36.7488C116.334 36.7912 116.419 36.8335 116.461 36.9041C116.504 36.9606 116.532 37.017 116.546 37.0735C116.56 37.13 116.574 37.1865 116.574 37.2429C116.574 37.2994 116.574 37.3417 116.574 37.3841V37.5535H116.532C116.532 37.5535 116.447 37.5394 116.391 37.5253C116.334 37.5253 116.278 37.5253 116.193 37.5253C116.066 37.5253 115.939 37.5253 115.826 37.5535C115.699 37.5676 115.572 37.5959 115.459 37.6382C115.346 37.6806 115.233 37.737 115.134 37.8076C115.036 37.8782 114.951 37.9629 114.88 38.0617C114.824 38.1465 114.781 38.2312 114.753 38.3018C114.725 38.3865 114.711 38.457 114.697 38.5276C114.697 38.5982 114.683 38.6547 114.697 38.697C114.697 38.7676 114.697 38.8382 114.725 38.9229C114.739 39.0076 114.767 39.0923 114.81 39.1912C114.852 39.2759 114.909 39.3606 114.979 39.4312C115.05 39.5017 115.134 39.5723 115.247 39.6147C115.346 39.657 115.487 39.6853 115.629 39.6994C115.784 39.6994 115.939 39.6853 116.052 39.6429C116.179 39.6006 116.292 39.5441 116.377 39.4735C116.461 39.4029 116.546 39.3041 116.617 39.2053V39.4029C116.617 39.4029 116.617 39.4735 116.617 39.5017C116.617 39.53 116.631 39.5582 116.659 39.5865C116.673 39.6147 116.701 39.6147 116.73 39.6288C116.758 39.6288 116.786 39.6288 116.814 39.6288C116.843 39.6288 116.857 39.6288 116.871 39.6288H117.21L117.181 39.657ZM116.546 38.6547C116.546 38.7394 116.532 38.81 116.49 38.8665C116.461 38.937 116.405 38.9935 116.349 39.0359C116.292 39.0782 116.221 39.1206 116.137 39.1488C116.094 39.1629 116.052 39.177 116.01 39.1912C115.967 39.1912 115.925 39.1912 115.897 39.1912C115.784 39.1912 115.699 39.177 115.6 39.1347C115.516 39.0923 115.445 39.0359 115.403 38.9512C115.346 38.8665 115.318 38.7676 115.318 38.6406C115.318 38.6123 115.318 38.57 115.318 38.5417C115.318 38.4994 115.318 38.4712 115.332 38.4429C115.36 38.3441 115.417 38.2594 115.487 38.1888C115.572 38.1182 115.657 38.0759 115.77 38.0476C115.883 38.0194 116.024 38.0053 116.165 38.0053C116.236 38.0053 116.292 38.0053 116.349 38.0053C116.405 38.0053 116.447 38.0053 116.476 38.0194C116.504 38.0194 116.518 38.0194 116.518 38.0194V38.6406L116.546 38.6547ZM118.593 35.0688H117.972V39.657H118.593V35.0688ZM98.7579 39.657V37.4406C98.7579 37.2994 98.7579 37.1723 98.7297 37.0594C98.7156 36.9465 98.6873 36.8617 98.645 36.777C98.6026 36.6923 98.5462 36.6076 98.4756 36.537C98.3767 36.4382 98.2497 36.3535 98.0944 36.297C97.9391 36.2406 97.7273 36.2123 97.5014 36.1982C97.3603 36.1982 97.2332 36.1982 97.1344 36.2265C97.0215 36.2547 96.9367 36.2688 96.8661 36.297C96.7956 36.3253 96.7391 36.3535 96.7109 36.3676C96.6685 36.3959 96.6544 36.3959 96.6544 36.3959L96.5414 36.9888C96.5414 36.9888 96.5556 36.9747 96.5979 36.9465C96.6262 36.9182 96.6826 36.8759 96.7532 36.8476C96.8238 36.8053 96.9085 36.777 97.0073 36.7488C97.1061 36.7206 97.2332 36.6923 97.3744 36.6923C97.5438 36.6923 97.685 36.7206 97.7838 36.7488C97.8826 36.7912 97.9673 36.8335 98.0097 36.9041C98.052 36.9606 98.0803 37.017 98.0944 37.0735C98.1085 37.13 98.1226 37.1865 98.1226 37.2429C98.1226 37.2994 98.1226 37.3417 98.1226 37.3841V37.5535H98.0803C98.0803 37.5535 97.9956 37.5394 97.9391 37.5253C97.8826 37.5253 97.8262 37.5253 97.7415 37.5253C97.6144 37.5253 97.4873 37.5253 97.3603 37.5535C97.2332 37.5676 97.1061 37.5959 96.9932 37.6382C96.8803 37.6806 96.7673 37.737 96.6685 37.8076C96.5697 37.8782 96.485 37.9629 96.4144 38.0617C96.3579 38.1465 96.3156 38.2312 96.2873 38.3018C96.2591 38.3865 96.245 38.457 96.2309 38.5276C96.2309 38.5982 96.2309 38.6547 96.2309 38.697C96.2309 38.7676 96.2309 38.8382 96.2591 38.9229C96.2732 39.0076 96.3014 39.0923 96.3438 39.1912C96.3861 39.2759 96.4426 39.3606 96.5132 39.4312C96.5838 39.5017 96.6685 39.5723 96.7814 39.6147C96.8944 39.657 97.0214 39.6853 97.1626 39.6994C97.3179 39.6994 97.4732 39.6853 97.5862 39.6429C97.7132 39.6006 97.8261 39.5441 97.9109 39.4735C98.0097 39.4029 98.0803 39.3041 98.1509 39.2053V39.4029C98.1509 39.4029 98.1509 39.4735 98.1509 39.5017C98.1509 39.53 98.165 39.5582 98.1932 39.5865C98.2073 39.6147 98.2356 39.6147 98.2638 39.6288C98.292 39.6288 98.3203 39.6288 98.3485 39.6288C98.3767 39.6288 98.3909 39.6288 98.405 39.6288H98.7438L98.7579 39.657ZM98.1226 38.6547C98.1226 38.7394 98.1085 38.81 98.0662 38.8665C98.0238 38.937 97.9814 38.9935 97.925 39.0359C97.8685 39.0782 97.7979 39.1206 97.7132 39.1488C97.6709 39.1629 97.6285 39.177 97.5862 39.1912C97.5438 39.1912 97.5014 39.1912 97.4732 39.1912C97.3603 39.1912 97.2756 39.177 97.1909 39.1347C97.1061 39.0923 97.0356 39.0359 96.9932 38.9512C96.9367 38.8665 96.9085 38.7676 96.9085 38.6406C96.9085 38.6123 96.9085 38.57 96.9085 38.5417C96.9085 38.4994 96.9085 38.4712 96.9226 38.4429C96.9509 38.3441 97.0073 38.2594 97.092 38.1888C97.1626 38.1182 97.2615 38.0759 97.3885 38.0476C97.5014 38.0194 97.6285 38.0053 97.7838 38.0053C97.8544 38.0053 97.9109 38.0053 97.9673 38.0053C98.0238 38.0053 98.0662 38.0053 98.0944 38.0194C98.1226 38.0194 98.1367 38.0194 98.1367 38.0194V38.6406L98.1226 38.6547ZM102.005 39.657V37.3841C102.005 37.2853 102.005 37.1865 101.991 37.0735C101.991 36.9747 101.963 36.8759 101.934 36.7912C101.906 36.7065 101.864 36.6218 101.793 36.537C101.709 36.4241 101.61 36.3394 101.469 36.2829C101.341 36.2265 101.186 36.1982 101.003 36.1982C100.861 36.1982 100.749 36.2265 100.636 36.2547C100.537 36.297 100.438 36.3394 100.367 36.3959C100.297 36.4523 100.24 36.5088 100.198 36.5653C100.156 36.6217 100.127 36.6641 100.113 36.7065V36.2688H99.4779V39.657H100.113V37.5676C100.113 37.5676 100.113 37.4265 100.113 37.3418C100.113 37.257 100.141 37.1723 100.17 37.0876C100.198 37.0029 100.254 36.9323 100.311 36.8618C100.367 36.8053 100.424 36.7629 100.494 36.7347C100.565 36.7065 100.636 36.6923 100.749 36.6923C100.89 36.6923 101.003 36.7206 101.087 36.7629C101.172 36.8053 101.229 36.8759 101.271 36.9465C101.313 37.0312 101.327 37.1159 101.341 37.2006C101.341 37.2994 101.356 37.3982 101.356 37.497V39.6288H101.977L102.005 39.657ZM82.9885 37.9912V35.0829H82.2544V37.9912C82.2544 38.09 82.2544 38.2029 82.2544 38.3159C82.2544 38.4288 82.2403 38.5276 82.212 38.6265C82.1838 38.7253 82.1556 38.81 82.1132 38.8947C82.0567 38.9935 81.972 39.0641 81.8732 39.1206C81.7744 39.177 81.6614 39.1912 81.5344 39.1912C81.4356 39.1912 81.3509 39.1912 81.2662 39.1629C81.1814 39.1347 81.1109 39.1206 81.0403 39.0923C80.9838 39.0641 80.9273 39.0359 80.885 39.0217C80.8426 38.9935 80.8285 38.9935 80.8285 38.9794L80.9838 39.6429L81.0261 39.6712C81.0261 39.6712 81.0967 39.7135 81.1673 39.7276C81.2238 39.7559 81.2944 39.77 81.3791 39.7841C81.4638 39.7982 81.5626 39.8123 81.6614 39.8123C81.7038 39.8123 81.7603 39.8123 81.8309 39.8123C81.9014 39.8123 81.9862 39.7982 82.0709 39.77C82.1556 39.7559 82.2403 39.7135 82.325 39.6712C82.4097 39.6288 82.4944 39.5723 82.565 39.5017C82.6356 39.4312 82.7062 39.3465 82.7626 39.2617C82.8191 39.177 82.8614 39.0641 82.8897 38.9512C82.9179 38.8382 82.9462 38.697 82.9603 38.5417C82.9744 38.3865 82.9885 38.2029 82.9885 37.9912ZM86.052 39.657V37.4406C86.052 37.2994 86.052 37.1723 86.0379 37.0594C86.0238 36.9465 85.9956 36.8617 85.9532 36.777C85.9109 36.6923 85.8544 36.6076 85.7838 36.537C85.685 36.4382 85.5579 36.3535 85.4026 36.297C85.2332 36.2406 85.0356 36.2123 84.8097 36.1982C84.6685 36.1982 84.5414 36.1982 84.4426 36.2265C84.3297 36.2547 84.245 36.2688 84.1744 36.297C84.1038 36.3253 84.0473 36.3535 84.005 36.3676C83.9626 36.3959 83.9485 36.3959 83.9485 36.3959L83.8356 36.9888C83.8356 36.9888 83.8497 36.9747 83.892 36.9465C83.9344 36.9182 83.9767 36.8759 84.0473 36.8476C84.1179 36.8053 84.2026 36.777 84.3156 36.7488C84.4144 36.7206 84.5414 36.6923 84.6826 36.6923C84.852 36.6923 84.9932 36.7206 85.092 36.7488C85.1909 36.7912 85.2756 36.8335 85.3179 36.9041C85.3603 36.9606 85.3885 37.017 85.4026 37.0735C85.4167 37.13 85.4309 37.1865 85.4309 37.2429C85.4309 37.2994 85.4309 37.3417 85.4309 37.3841V37.5535H85.3885C85.3885 37.5535 85.3038 37.5394 85.2473 37.5253C85.1909 37.5253 85.1344 37.5253 85.0497 37.5253C84.9226 37.5253 84.7956 37.5253 84.6685 37.5535C84.5414 37.5676 84.4144 37.5959 84.3014 37.6382C84.1885 37.6806 84.0756 37.737 83.9767 37.8076C83.8779 37.8782 83.7932 37.9629 83.7226 38.0617C83.6662 38.1465 83.6238 38.2312 83.5956 38.3018C83.5673 38.3865 83.5532 38.457 83.5391 38.5276C83.5391 38.5982 83.5391 38.6547 83.5391 38.697C83.5391 38.7676 83.5391 38.8382 83.5673 38.9229C83.5814 39.0076 83.6097 39.0923 83.652 39.1912C83.6944 39.2759 83.7509 39.3606 83.8214 39.4312C83.892 39.5017 83.9767 39.5723 84.0897 39.6147C84.2026 39.657 84.3297 39.6853 84.4709 39.6994C84.6262 39.6994 84.7814 39.6853 84.8944 39.6429C85.0214 39.6006 85.1344 39.5441 85.2191 39.4735C85.3179 39.4029 85.3885 39.3041 85.4591 39.2053V39.4029C85.4591 39.4029 85.4591 39.4735 85.4591 39.5017C85.4591 39.53 85.4732 39.5582 85.5014 39.5865C85.5156 39.6147 85.5438 39.6147 85.572 39.6288C85.6003 39.6288 85.6285 39.6288 85.6567 39.6288C85.685 39.6288 85.6991 39.6288 85.7132 39.6288H86.052V39.657ZM85.4167 38.6547C85.4167 38.7394 85.4026 38.81 85.3603 38.8665C85.3179 38.937 85.2756 38.9935 85.205 39.0359C85.1485 39.0782 85.0779 39.1206 84.9932 39.1488C84.9509 39.1629 84.9085 39.177 84.8662 39.1912C84.8238 39.1912 84.7814 39.1912 84.7532 39.1912C84.6544 39.1912 84.5556 39.177 84.4567 39.1347C84.372 39.0923 84.3014 39.0359 84.2591 38.9512C84.2026 38.8665 84.1744 38.7676 84.1744 38.6406C84.1744 38.6123 84.1744 38.57 84.1744 38.5417C84.1744 38.4994 84.1744 38.4712 84.1885 38.4429C84.2167 38.3441 84.2732 38.2594 84.3579 38.1888C84.4285 38.1182 84.5273 38.0759 84.6403 38.0476C84.7532 38.0194 84.8944 38.0053 85.0356 38.0053C85.1062 38.0053 85.1626 38.0053 85.2191 38.0053C85.2756 38.0053 85.3179 38.0053 85.3462 38.0194C85.3744 38.0194 85.3885 38.0194 85.3885 38.0194V38.6406L85.4167 38.6547ZM90.9791 39.657V37.3982C90.9791 37.3135 90.9791 37.2288 90.9791 37.1441C90.9791 37.0594 90.9509 36.9606 90.9226 36.8618C90.8944 36.7629 90.852 36.6782 90.8097 36.5935C90.7532 36.5088 90.6826 36.4382 90.5979 36.3676C90.5132 36.3112 90.4285 36.2688 90.3297 36.2406C90.2309 36.2123 90.132 36.1982 90.0473 36.1982C89.9203 36.1982 89.8073 36.2123 89.7085 36.2547C89.6097 36.2829 89.525 36.3394 89.4544 36.3817C89.3838 36.4382 89.3273 36.4947 89.285 36.537C89.2426 36.5935 89.2003 36.6359 89.1861 36.6782C89.1579 36.7206 89.1438 36.7488 89.1438 36.7629C89.1438 36.7488 89.1297 36.7065 89.1156 36.6641C89.1014 36.6218 89.0591 36.5653 89.0309 36.5088C88.9885 36.4523 88.932 36.3959 88.8756 36.3535C88.8191 36.3112 88.7626 36.2829 88.692 36.2547C88.6214 36.2265 88.565 36.2123 88.4944 36.1982C88.4379 36.1982 88.3673 36.1841 88.3109 36.1841C88.1697 36.1841 88.0567 36.1982 87.9579 36.2406C87.8591 36.2829 87.7744 36.3253 87.7038 36.3817C87.6332 36.4382 87.5767 36.4947 87.5344 36.5512C87.492 36.6076 87.4638 36.6641 87.4497 36.7065V36.2547H86.8144V39.6429H87.4497V37.5676C87.4497 37.4265 87.4497 37.3135 87.4779 37.2147C87.5061 37.13 87.5203 37.0453 87.5626 36.9888C87.5909 36.9323 87.6332 36.89 87.6756 36.8476C87.7179 36.8053 87.7744 36.7629 87.8309 36.7347C87.8873 36.7065 87.9579 36.6923 88.0426 36.6923C88.1414 36.6923 88.212 36.6923 88.2685 36.7206C88.325 36.7488 88.3814 36.777 88.4097 36.8194C88.452 36.8617 88.4944 36.9182 88.5226 36.9747C88.5509 37.0312 88.565 37.1017 88.5791 37.1865C88.5791 37.2712 88.5932 37.37 88.5932 37.4829V39.6147H89.2144V37.5394C89.2144 37.4547 89.2144 37.3841 89.2144 37.2994C89.2144 37.2147 89.2426 37.13 89.2709 37.0594C89.2991 36.9747 89.3556 36.9041 89.412 36.8335C89.4685 36.777 89.525 36.7488 89.5815 36.7206C89.6379 36.6923 89.7085 36.6782 89.7791 36.6782C89.8497 36.6782 89.9344 36.6782 89.9909 36.7065C90.0473 36.7206 90.1179 36.7488 90.1603 36.8053C90.2026 36.8476 90.2309 36.89 90.2591 36.9465C90.2873 36.9888 90.2873 37.017 90.3014 37.0453C90.3014 37.0735 90.3156 37.1159 90.3297 37.1582C90.3297 37.2006 90.3297 37.257 90.3438 37.3135C90.3438 37.37 90.3438 37.4265 90.3438 37.4829V39.6147H90.965L90.9791 39.657ZM92.405 35.4076C92.405 35.4076 92.3909 35.2806 92.3485 35.2382C92.3203 35.1959 92.2779 35.1535 92.2214 35.1253C92.165 35.097 92.1085 35.0829 92.0238 35.0829C91.9532 35.0829 91.8826 35.097 91.8262 35.1253C91.7697 35.1535 91.7273 35.1959 91.6991 35.2382C91.6709 35.2947 91.6567 35.337 91.6426 35.3935C91.6426 35.4641 91.6567 35.5206 91.685 35.5629C91.7132 35.6194 91.7556 35.6476 91.812 35.69C91.8685 35.7182 91.9391 35.7323 92.0097 35.7323C92.0803 35.7323 92.1509 35.7182 92.2073 35.69C92.2638 35.6617 92.3062 35.6194 92.3344 35.5629C92.3626 35.5065 92.3767 35.45 92.3767 35.3935L92.405 35.4076ZM92.3485 36.2688H91.7132V39.657H92.3485V36.2688ZM95.6238 39.657V37.3841C95.6238 37.2853 95.6238 37.1865 95.6097 37.0735C95.6097 36.9747 95.5814 36.8759 95.5532 36.7912C95.525 36.7065 95.4685 36.6218 95.412 36.537C95.3273 36.4241 95.2285 36.3394 95.0873 36.2829C94.9603 36.2265 94.805 36.1982 94.6214 36.1982C94.4803 36.1982 94.3532 36.2265 94.2544 36.2547C94.1556 36.297 94.0709 36.3394 94.0003 36.3959C93.9297 36.4523 93.8732 36.5088 93.8309 36.5653C93.7885 36.6217 93.7603 36.6641 93.7462 36.7065V36.2688H93.1109V39.657H93.7462V37.5676C93.7462 37.5676 93.7462 37.4265 93.7603 37.3418C93.7603 37.257 93.7885 37.1723 93.8167 37.0876C93.845 37.0029 93.9015 36.9323 93.9579 36.8618C94.0144 36.8053 94.0709 36.7629 94.1414 36.7347C94.212 36.7065 94.2967 36.6923 94.3956 36.6923C94.5367 36.6923 94.6497 36.7206 94.7344 36.7629C94.8191 36.8053 94.8756 36.8759 94.9179 36.9465C94.9603 37.0312 94.9744 37.1159 94.9885 37.2006C94.9885 37.2994 95.0026 37.3982 94.9885 37.497V39.6288H95.6097L95.6238 39.657ZM26.9697 38.2735C26.9697 38.1888 26.9697 38.1041 26.9414 38.0053C26.9273 37.9206 26.8991 37.8359 26.8567 37.7512C26.8144 37.6665 26.7579 37.5959 26.6873 37.5394C26.6026 37.4547 26.5038 37.3982 26.405 37.3559C26.3062 37.3135 26.1932 37.2853 26.0803 37.2712C26.1509 37.2429 26.2214 37.2147 26.292 37.1723C26.3626 37.13 26.4332 37.0876 26.4897 37.0453C26.5462 36.9888 26.6026 36.9465 26.645 36.8759C26.7014 36.7912 26.7438 36.6923 26.772 36.5794C26.8003 36.4665 26.8144 36.3394 26.8144 36.1841C26.8144 36.0147 26.7862 35.8735 26.7297 35.7465C26.6732 35.6194 26.6167 35.5065 26.5179 35.4217C26.4332 35.337 26.3344 35.2665 26.2214 35.2241C26.0803 35.1676 25.9391 35.1253 25.7979 35.097C25.6426 35.0829 25.4873 35.0688 25.3179 35.0688H23.9344V39.6429H25.3038C25.4167 39.6429 25.5156 39.6429 25.6426 39.6429C25.7556 39.6429 25.8685 39.6147 25.9956 39.6006C26.1085 39.5723 26.2214 39.5441 26.3344 39.4876C26.4473 39.4453 26.532 39.3747 26.6167 39.29C26.7156 39.1912 26.7862 39.0923 26.8426 38.9794C26.8991 38.8665 26.9273 38.7535 26.9556 38.6265C26.9697 38.5135 26.9838 38.3865 26.9838 38.2735H26.9697ZM26.052 36.3394C26.052 36.4665 26.0238 36.5653 25.9956 36.65C25.9532 36.7347 25.8967 36.7912 25.8403 36.8476C25.7697 36.89 25.7132 36.9323 25.6426 36.9465C25.572 36.9747 25.5156 36.9747 25.445 36.9888C25.3885 36.9888 25.3462 36.9888 25.3038 36.9888H24.6544V35.69H25.3038C25.3038 35.69 25.3603 35.69 25.4026 35.69C25.445 35.69 25.5014 35.69 25.5438 35.69C25.6003 35.69 25.6426 35.7182 25.6991 35.7323C25.7414 35.7465 25.7838 35.7747 25.8262 35.8029C25.8967 35.8594 25.9532 35.93 25.9956 36.0147C26.0379 36.0994 26.052 36.1982 26.052 36.3253V36.3394ZM26.2073 38.2876C26.2073 38.4147 26.1932 38.5135 26.165 38.5982C26.1367 38.6829 26.0944 38.7535 26.0379 38.81C25.9673 38.8806 25.8967 38.9229 25.7979 38.9512C25.7132 38.9794 25.6285 38.9935 25.5297 38.9935C25.4309 38.9935 25.3462 38.9935 25.2756 38.9935H24.6403V37.5959H25.2756C25.3744 37.5959 25.4732 37.5959 25.572 37.5959C25.6709 37.5959 25.7556 37.6241 25.8403 37.6523C25.925 37.6806 25.9956 37.7229 26.052 37.7935C26.1085 37.85 26.1367 37.9206 26.165 38.0053C26.1932 38.09 26.2073 38.1747 26.2073 38.2876ZM29.9485 39.657V37.4406C29.9485 37.2994 29.9485 37.1723 29.9203 37.0594C29.9062 36.9465 29.8779 36.8617 29.8356 36.777C29.7932 36.6923 29.7367 36.6076 29.6662 36.537C29.5673 36.4382 29.4403 36.3535 29.285 36.297C29.1297 36.2406 28.9179 36.2123 28.692 36.1982C28.5509 36.1982 28.4238 36.1982 28.325 36.2265C28.212 36.2547 28.1273 36.2688 28.0567 36.297C27.9862 36.3253 27.9297 36.3535 27.9014 36.3676C27.8591 36.3959 27.845 36.3959 27.845 36.3959L27.732 36.9888C27.732 36.9888 27.7462 36.9747 27.7885 36.9465C27.8167 36.9182 27.8732 36.8759 27.9438 36.8476C28.0144 36.8053 28.0991 36.777 28.1979 36.7488C28.2967 36.7206 28.4238 36.6923 28.565 36.6923C28.7344 36.6923 28.8756 36.7206 28.9744 36.7488C29.0732 36.7912 29.1579 36.8335 29.2003 36.9041C29.2426 36.9606 29.2709 37.017 29.285 37.0735C29.2991 37.13 29.3132 37.1865 29.3132 37.2429C29.3132 37.2994 29.3132 37.3417 29.3132 37.3841V37.5535H29.2709C29.2709 37.5535 29.2003 37.5394 29.1438 37.5253C29.0873 37.5253 29.0309 37.5253 28.9462 37.5253C28.8191 37.5253 28.692 37.5253 28.5791 37.5535C28.452 37.5676 28.325 37.5959 28.212 37.6382C28.0991 37.6806 27.9862 37.737 27.8873 37.8076C27.7885 37.8782 27.7038 37.9629 27.6332 38.0617C27.5767 38.1465 27.5344 38.2312 27.5062 38.3018C27.4779 38.3865 27.4638 38.457 27.4497 38.5276C27.4497 38.5982 27.4497 38.6547 27.4497 38.697C27.4497 38.7676 27.4497 38.8382 27.4779 38.9229C27.492 39.0076 27.5203 39.0923 27.5626 39.1912C27.605 39.2759 27.6614 39.3606 27.732 39.4312C27.8026 39.5017 27.8873 39.5723 28.0003 39.6147C28.1132 39.657 28.2403 39.6853 28.3814 39.6994C28.5367 39.6994 28.692 39.6853 28.805 39.6429C28.932 39.6006 29.045 39.5441 29.1297 39.4735C29.2285 39.4029 29.2991 39.3041 29.3697 39.2053V39.4029C29.3697 39.4029 29.3697 39.4735 29.3697 39.5017C29.3697 39.53 29.3838 39.5582 29.412 39.5865C29.4262 39.6147 29.4544 39.6147 29.4826 39.6288C29.5109 39.6288 29.5391 39.6288 29.5673 39.6288C29.5956 39.6288 29.6097 39.6288 29.6238 39.6288H29.9626L29.9485 39.657ZM29.3132 38.6547C29.3132 38.7394 29.2991 38.81 29.2567 38.8665C29.2144 38.937 29.172 38.9935 29.1156 39.0359C29.0591 39.0782 28.9885 39.1206 28.9038 39.1488C28.8614 39.1629 28.8191 39.177 28.7767 39.1912C28.7344 39.1912 28.692 39.1912 28.6638 39.1912C28.5509 39.1912 28.4662 39.177 28.3673 39.1347C28.2826 39.0923 28.212 39.0359 28.1697 38.9512C28.1132 38.8665 28.085 38.7676 28.085 38.6406C28.085 38.6123 28.085 38.57 28.085 38.5417C28.085 38.4994 28.085 38.4712 28.0991 38.4429C28.1273 38.3441 28.1838 38.2594 28.2544 38.1888C28.325 38.1182 28.4238 38.0759 28.5509 38.0476C28.6638 38.0194 28.7909 38.0053 28.9462 38.0053C29.0167 38.0053 29.0732 38.0053 29.1297 38.0053C29.1861 38.0053 29.2285 38.0053 29.2567 38.0194C29.285 38.0194 29.2991 38.0194 29.2991 38.0194V38.6406L29.3132 38.6547ZM33.252 39.657V35.0688H32.6167V36.5935C32.6167 36.5935 32.6167 36.5794 32.6026 36.5512C32.5885 36.5229 32.5603 36.4947 32.532 36.4523C32.4897 36.41 32.4473 36.3676 32.3909 36.3394C32.3344 36.297 32.2638 36.2688 32.165 36.2406C32.0803 36.2123 31.9673 36.1982 31.8544 36.1982C31.685 36.1982 31.5438 36.2265 31.4167 36.2829C31.2897 36.3394 31.1767 36.41 31.092 36.5088C30.9932 36.6076 30.9226 36.7065 30.8662 36.8335C30.8097 36.9606 30.7532 37.0876 30.725 37.2147C30.6826 37.3418 30.6685 37.4829 30.6403 37.61C30.6262 37.737 30.612 37.8641 30.612 37.977C30.612 38.1606 30.612 38.3441 30.6544 38.5135C30.6826 38.6829 30.725 38.8382 30.7814 38.9935C30.8379 39.1347 30.9226 39.2617 31.0214 39.3747C31.1203 39.4876 31.2332 39.5723 31.3744 39.6288C31.5156 39.6853 31.6709 39.7135 31.8544 39.7135C31.9673 39.7135 32.0803 39.6994 32.165 39.657C32.2638 39.6288 32.3485 39.5865 32.4332 39.53C32.5179 39.4735 32.6026 39.4029 32.6732 39.3323V39.6712H33.2803L33.252 39.657ZM32.6167 38.8665C32.6167 38.8665 32.5462 38.9512 32.5038 38.9794C32.4614 39.0217 32.4191 39.05 32.3626 39.0782C32.292 39.1065 32.2356 39.1347 32.165 39.1488C32.1085 39.1629 32.0379 39.177 31.9673 39.177C31.8403 39.177 31.7273 39.1488 31.6426 39.0782C31.5579 39.0217 31.4873 38.937 31.4309 38.8241C31.3744 38.7112 31.332 38.5841 31.3038 38.4429C31.2756 38.3017 31.2614 38.1465 31.2614 37.977C31.2614 37.8782 31.2614 37.7794 31.2614 37.6665C31.2614 37.5535 31.2897 37.4406 31.3038 37.3276C31.332 37.2147 31.3603 37.1159 31.4167 37.017C31.4732 36.9182 31.5297 36.8476 31.6144 36.7912C31.6991 36.7347 31.812 36.7065 31.9391 36.7065C32.052 36.7065 32.1509 36.7206 32.2356 36.7629C32.3203 36.7912 32.3767 36.8476 32.4332 36.9041C32.4756 36.9606 32.5179 37.017 32.5462 37.0735C32.5744 37.1441 32.5885 37.2006 32.5885 37.2712C32.5885 37.3417 32.5885 37.4123 32.5885 37.4688V38.8523L32.6167 38.8665ZM36.4285 39.657V37.4406C36.4285 37.2994 36.4285 37.1723 36.4003 37.0594C36.3862 36.9465 36.3579 36.8617 36.3156 36.777C36.2732 36.6923 36.2167 36.6076 36.1462 36.537C36.0473 36.4382 35.9203 36.3535 35.765 36.297C35.5956 36.2406 35.3979 36.2123 35.172 36.1982C35.0309 36.1982 34.9038 36.1982 34.805 36.2265C34.692 36.2547 34.6073 36.2688 34.5367 36.297C34.4661 36.3253 34.4097 36.3535 34.3673 36.3676C34.3391 36.3959 34.3109 36.3959 34.3109 36.3959L34.1979 36.9888C34.1979 36.9888 34.212 36.9747 34.2544 36.9465C34.2967 36.9182 34.3391 36.8759 34.4097 36.8476C34.4803 36.8053 34.565 36.777 34.6638 36.7488C34.7626 36.7206 34.8897 36.6923 35.0309 36.6923C35.2003 36.6923 35.3414 36.7206 35.4403 36.7488C35.5391 36.7912 35.6238 36.8335 35.6662 36.9041C35.7085 36.9606 35.7367 37.017 35.7509 37.0735C35.765 37.13 35.7791 37.1865 35.7791 37.2429V37.5535H35.7226C35.7226 37.5535 35.652 37.5394 35.5956 37.5253C35.5391 37.5253 35.4685 37.5253 35.3979 37.5253C35.2709 37.5253 35.1438 37.5253 35.0309 37.5535C34.9038 37.5676 34.7767 37.5959 34.6638 37.6382C34.5509 37.6806 34.4379 37.737 34.3391 37.8076C34.2403 37.8782 34.1556 37.9629 34.085 38.0617C34.0285 38.1465 33.9861 38.2312 33.9579 38.3018C33.9297 38.3865 33.9156 38.457 33.9014 38.5276C33.9014 38.5982 33.8873 38.6547 33.9014 38.697C33.9014 38.7676 33.9014 38.8382 33.9297 38.9229C33.9438 39.0076 33.972 39.0923 34.0144 39.1912C34.0567 39.2759 34.1132 39.3606 34.1838 39.4312C34.2544 39.5017 34.3391 39.5723 34.452 39.6147C34.5509 39.657 34.692 39.6853 34.8332 39.6994C34.9885 39.6994 35.1297 39.6853 35.2567 39.6429C35.3838 39.6006 35.4967 39.5441 35.5814 39.4735C35.6803 39.4029 35.7509 39.3041 35.8214 39.2053V39.4029C35.8214 39.4029 35.8214 39.4735 35.8214 39.5017C35.8214 39.53 35.8356 39.5582 35.8638 39.5865C35.8779 39.6147 35.9062 39.6147 35.9344 39.6288C35.9626 39.6288 35.9909 39.6288 36.0191 39.6288C36.0473 39.6288 36.0614 39.6288 36.0756 39.6288H36.4144L36.4285 39.657ZM35.7932 38.6547C35.7932 38.7394 35.765 38.81 35.7367 38.8665C35.6944 38.937 35.652 38.9935 35.5956 39.0359C35.5391 39.0782 35.4685 39.1206 35.3838 39.1488C35.3414 39.1629 35.2991 39.177 35.2567 39.1912C35.2144 39.1912 35.172 39.1912 35.1438 39.1912C35.0309 39.1912 34.9462 39.177 34.8614 39.1347C34.7767 39.0923 34.7062 39.0359 34.6497 38.9512C34.5932 38.8665 34.565 38.7676 34.565 38.6406C34.565 38.6123 34.565 38.57 34.565 38.5417C34.565 38.4994 34.565 38.4712 34.5791 38.4429C34.6073 38.3441 34.6638 38.2594 34.7485 38.1888C34.8332 38.1182 34.9179 38.0759 35.045 38.0476C35.1579 38.0194 35.2991 38.0053 35.4403 38.0053C35.5109 38.0053 35.5673 38.0053 35.6238 38.0053C35.6803 38.0053 35.7226 38.0053 35.7509 38.0194C35.7791 38.0194 35.7932 38.0194 35.7932 38.0194V38.6406V38.6547ZM39.6614 39.657V37.3841C39.6614 37.2853 39.6614 37.1865 39.6473 37.0735C39.6473 36.9747 39.6191 36.8759 39.5909 36.7912C39.5626 36.7065 39.5203 36.6218 39.4497 36.537C39.365 36.4241 39.2661 36.3394 39.125 36.2829C38.9838 36.2265 38.8285 36.1982 38.6591 36.1982C38.5179 36.1982 38.405 36.2265 38.292 36.2547C38.1932 36.297 38.0944 36.3394 38.0238 36.3959C37.9532 36.4523 37.8967 36.5088 37.8544 36.5653C37.812 36.6217 37.7838 36.6641 37.7697 36.7065V36.2688H37.1344V39.657H37.7697V37.5676C37.7697 37.5676 37.7697 37.4265 37.7838 37.3418C37.7838 37.257 37.812 37.1723 37.8403 37.0876C37.8685 37.0029 37.925 36.9323 37.9814 36.8618C38.0379 36.8053 38.0944 36.7629 38.165 36.7347C38.2356 36.7065 38.3203 36.6923 38.4191 36.6923C38.5603 36.6923 38.6732 36.7206 38.7579 36.7629C38.8426 36.8053 38.8991 36.8759 38.9273 36.9465C38.9697 37.0312 38.9838 37.1159 38.9979 37.2006C38.9979 37.2994 39.012 37.3982 38.9979 37.497V39.6288H39.6191L39.6614 39.657ZM67.8544 39.9112C67.8544 39.6006 67.7556 39.3606 67.5297 39.2194C67.3179 39.0641 66.9932 38.9935 66.5556 38.9935C66.5132 38.9935 66.4426 38.9935 66.3862 38.9935C66.3156 38.9935 66.245 38.9935 66.1744 38.9935C66.1038 38.9935 66.0332 38.9935 65.9767 38.9653C65.9203 38.9653 65.8638 38.937 65.8214 38.9088C65.7791 38.8806 65.765 38.8382 65.765 38.7959C65.765 38.7394 65.7932 38.697 65.8214 38.6688C65.8638 38.6406 65.9062 38.6123 65.9767 38.6123C66.0473 38.6123 66.1179 38.5982 66.2026 38.5982H66.485C66.7532 38.5982 66.9791 38.5417 67.1767 38.457C67.3603 38.3582 67.5014 38.2312 67.6003 38.0476C67.6991 37.8641 67.7556 37.6523 67.7556 37.3982V36.297H67.4309C67.4309 36.297 67.3744 36.297 67.3462 36.297C67.3179 36.297 67.2897 36.297 67.2614 36.3253C67.2332 36.3253 67.205 36.3676 67.1767 36.3959C67.1485 36.4241 67.1344 36.4665 67.1344 36.5088C67.1344 36.5512 67.1344 36.5794 67.1344 36.6076V36.65L67.1062 36.6076C67.1062 36.6076 67.0638 36.5512 67.0214 36.5088C66.9791 36.4665 66.9367 36.4241 66.8662 36.3959C66.7956 36.3535 66.725 36.3253 66.6261 36.297C66.5273 36.2688 66.4144 36.2547 66.2873 36.2547C66.2026 36.2547 66.1179 36.2547 66.0191 36.2829C65.9203 36.3112 65.8356 36.3394 65.7509 36.3959C65.6662 36.4523 65.5814 36.5088 65.5109 36.6076C65.4403 36.6923 65.3838 36.8053 65.3414 36.9323C65.2991 37.0735 65.285 37.2288 65.285 37.4123C65.285 37.5394 65.2991 37.6523 65.3273 37.7512C65.3556 37.85 65.3979 37.9347 65.4403 38.0053C65.4826 38.0759 65.525 38.1323 65.5814 38.1747C65.6238 38.217 65.6661 38.2594 65.6944 38.2735L65.7367 38.3018H65.6803C65.6803 38.3018 65.5956 38.33 65.5391 38.3582C65.4826 38.3865 65.4262 38.4147 65.3697 38.457C65.3132 38.4994 65.2567 38.5559 65.2144 38.6265C65.172 38.697 65.1579 38.7959 65.1579 38.8947C65.1579 38.9794 65.1579 39.05 65.1861 39.1065C65.2144 39.1629 65.2285 39.2194 65.2709 39.2476C65.2991 39.29 65.3414 39.3182 65.3838 39.3323C65.4262 39.3606 65.4685 39.3747 65.4967 39.3888C65.4967 39.3888 65.4967 39.3888 65.4544 39.417C65.4403 39.417 65.3979 39.4594 65.3697 39.4876C65.3414 39.5159 65.2991 39.5582 65.2709 39.6147C65.2285 39.6712 65.2144 39.7276 65.1861 39.7982C65.1579 39.8688 65.1438 39.9535 65.1438 40.0523C65.1438 40.2217 65.2003 40.3629 65.2991 40.49C65.3979 40.617 65.5532 40.7159 65.7509 40.7865C65.9485 40.857 66.1885 40.8994 66.485 40.8994C66.6685 40.8994 66.8379 40.8853 66.9932 40.8429C67.1485 40.8006 67.2897 40.7441 67.4167 40.6735C67.5297 40.6029 67.6285 40.5041 67.6991 40.377C67.7697 40.25 67.812 40.1088 67.8262 39.9535L67.8544 39.9112ZM67.1485 37.3841C67.1485 37.5394 67.1203 37.6665 67.0779 37.7653C67.0214 37.8782 66.9509 37.9488 66.852 38.0194C66.7532 38.0759 66.6403 38.1041 66.485 38.1041C66.3579 38.1041 66.2591 38.0759 66.1744 38.0194C66.0897 37.9629 66.0191 37.8782 65.9767 37.7653C65.9344 37.6523 65.9062 37.5253 65.9062 37.3841C65.9062 37.2429 65.9344 37.1017 65.9767 37.0029C66.0191 36.9041 66.0897 36.8194 66.1744 36.7629C66.2591 36.7065 66.372 36.6782 66.5132 36.6923C66.6262 36.6923 66.725 36.7206 66.8097 36.7629C66.8944 36.8053 66.9509 36.8617 67.0073 36.9182C67.0497 36.9888 67.092 37.0594 67.1062 37.13C67.1344 37.2147 67.1344 37.2994 67.1344 37.3841H67.1485ZM67.2191 39.9394C67.2191 40.0241 67.205 40.0806 67.1626 40.137C67.1203 40.1935 67.0638 40.2359 66.9932 40.2782C66.9226 40.3206 66.852 40.3488 66.7673 40.3629C66.6826 40.377 66.5979 40.3912 66.5132 40.3912C66.3579 40.3912 66.2167 40.377 66.1038 40.3347C65.9909 40.2923 65.9062 40.2359 65.8356 40.1794C65.7791 40.1088 65.7367 40.0241 65.7367 39.9394C65.7367 39.8829 65.7367 39.8123 65.765 39.77C65.7791 39.7135 65.8073 39.6712 65.8356 39.6288C65.8638 39.5865 65.892 39.5582 65.9062 39.5441L65.9344 39.5159H66.485C66.6262 39.5159 66.7391 39.53 66.8379 39.5582C66.9226 39.5865 66.9932 39.6147 67.0497 39.657C67.1062 39.6994 67.1344 39.7417 67.1626 39.7982C67.1767 39.8547 67.1909 39.897 67.1909 39.9535L67.2191 39.9394ZM71.0309 39.9112C71.0309 39.6006 70.932 39.3606 70.7062 39.2194C70.4803 39.0641 70.1697 38.9935 69.732 38.9935C69.6756 38.9935 69.6191 38.9935 69.5626 38.9935C69.492 38.9935 69.4214 38.9935 69.365 38.9935C69.2944 38.9935 69.2238 38.9935 69.1673 38.9653C69.1109 38.9653 69.0544 38.937 69.0261 38.9088C68.9838 38.8806 68.9697 38.8382 68.9697 38.7959C68.9697 38.7394 68.9838 38.697 69.0261 38.6688C69.0685 38.6406 69.1109 38.6123 69.1814 38.6123C69.252 38.6123 69.3226 38.5982 69.4073 38.5982H69.6897C69.9579 38.5982 70.1838 38.5417 70.3814 38.457C70.565 38.3582 70.7203 38.2312 70.8191 38.0476C70.9179 37.8641 70.9603 37.6523 70.9744 37.3982V36.297H70.6497C70.6497 36.297 70.5932 36.297 70.565 36.297C70.5367 36.297 70.5085 36.297 70.4803 36.3253C70.452 36.3253 70.4238 36.3676 70.3956 36.3959C70.3673 36.4241 70.3673 36.4665 70.3532 36.5088C70.3532 36.5512 70.3532 36.5794 70.3532 36.6076V36.65L70.325 36.6076C70.325 36.6076 70.2826 36.5512 70.2403 36.5088C70.1979 36.4665 70.1414 36.4241 70.085 36.3959C70.0144 36.3535 69.9438 36.3253 69.845 36.297C69.7462 36.2688 69.6332 36.2547 69.5062 36.2547C69.4214 36.2547 69.3367 36.2547 69.2379 36.2829C69.1391 36.3112 69.0544 36.3394 68.9697 36.3959C68.885 36.4523 68.8003 36.5088 68.7297 36.6076C68.6591 36.6923 68.6026 36.8053 68.5603 36.9323C68.5179 37.0735 68.5038 37.2288 68.5038 37.4123C68.5038 37.5394 68.5179 37.6523 68.5603 37.7512C68.5885 37.85 68.6309 37.9347 68.6732 38.0053C68.7156 38.0759 68.772 38.1323 68.8144 38.1747C68.8567 38.217 68.8991 38.2594 68.9273 38.2735L68.9838 38.3018H68.9273C68.9273 38.3018 68.8426 38.33 68.772 38.3582C68.7156 38.3865 68.6591 38.4147 68.6026 38.457C68.5462 38.4994 68.4897 38.5559 68.4473 38.6265C68.405 38.697 68.3909 38.7959 68.3909 38.8947C68.3909 38.9794 68.3909 39.05 68.4191 39.1065C68.4332 39.1629 68.4756 39.2194 68.5038 39.2476C68.5462 39.29 68.5744 39.3182 68.6167 39.3323C68.6591 39.3606 68.7014 39.3747 68.7297 39.3888C68.7297 39.3888 68.7156 39.3888 68.7014 39.417C68.6732 39.417 68.645 39.4594 68.6167 39.4876C68.5885 39.5159 68.5462 39.5582 68.5179 39.6147C68.4897 39.6712 68.4614 39.7276 68.4332 39.7982C68.405 39.8688 68.405 39.9535 68.405 40.0523C68.405 40.2217 68.4614 40.3629 68.5603 40.49C68.6591 40.617 68.8144 40.7159 69.012 40.7865C69.2097 40.857 69.4638 40.8994 69.7462 40.8994C69.9297 40.8994 70.0991 40.8853 70.2544 40.8429C70.4097 40.8006 70.5509 40.7441 70.6779 40.6735C70.805 40.6029 70.8897 40.5041 70.9744 40.377C71.045 40.25 71.0873 40.1088 71.1014 39.9535L71.0309 39.9112ZM70.3109 37.3841C70.3109 37.5394 70.2826 37.6665 70.2403 37.7653C70.1979 37.8782 70.1132 37.9488 70.0285 38.0194C69.9297 38.0759 69.8167 38.1041 69.6614 38.1041C69.5344 38.1041 69.4356 38.0759 69.3509 38.0194C69.2662 37.9629 69.1956 37.8782 69.1532 37.7653C69.1109 37.6523 69.0826 37.5253 69.0826 37.3841C69.0826 37.2429 69.1109 37.1017 69.1532 37.0029C69.1956 36.9041 69.2662 36.8194 69.3509 36.7629C69.4356 36.7065 69.5485 36.6782 69.6897 36.6923C69.8026 36.6923 69.9014 36.7206 69.9862 36.7629C70.0709 36.8053 70.1273 36.8617 70.1838 36.9182C70.2262 36.9888 70.2685 37.0594 70.2826 37.13C70.2967 37.2147 70.3109 37.2994 70.3109 37.3841ZM70.3956 39.9394C70.3956 40.0241 70.3814 40.0806 70.3391 40.137C70.2967 40.1935 70.2403 40.2359 70.1697 40.2782C70.0991 40.3206 70.0285 40.3488 69.9438 40.3629C69.8591 40.377 69.7744 40.3912 69.7038 40.3912C69.5485 40.3912 69.4073 40.377 69.2944 40.3347C69.1814 40.2923 69.0967 40.2359 69.0261 40.1794C68.9697 40.1088 68.9273 40.0241 68.9273 39.9394C68.9273 39.8829 68.9273 39.8123 68.9556 39.77C68.9838 39.7135 68.9979 39.6712 69.0261 39.6288C69.0544 39.5865 69.0826 39.5582 69.0967 39.5441L69.125 39.5159H69.6756C69.8167 39.5159 69.9297 39.53 70.0144 39.5582C70.0991 39.5865 70.1697 39.6147 70.2262 39.657C70.2826 39.6994 70.3109 39.7417 70.3391 39.7982C70.3673 39.8547 70.3673 39.897 70.3673 39.9535L70.3956 39.9394ZM73.9532 39.657V37.4406C73.9532 37.2994 73.9532 37.1723 73.925 37.0594C73.9109 36.9465 73.8826 36.8617 73.8403 36.777C73.7979 36.6923 73.7414 36.6076 73.6709 36.537C73.572 36.4382 73.445 36.3535 73.2897 36.297C73.1344 36.2406 72.9226 36.2123 72.6967 36.1982C72.5556 36.1982 72.4285 36.1982 72.3297 36.2265C72.2309 36.2547 72.132 36.2688 72.0614 36.297C71.9909 36.3253 71.9344 36.3535 71.892 36.3676C71.8638 36.3959 71.8356 36.3959 71.8356 36.3959L71.7226 36.9888C71.7226 36.9888 71.7367 36.9747 71.7791 36.9465C71.8073 36.9182 71.8638 36.8759 71.9344 36.8476C72.005 36.8053 72.0897 36.777 72.1885 36.7488C72.2873 36.7206 72.4144 36.6923 72.5556 36.6923C72.725 36.6923 72.8662 36.7206 72.965 36.7488C73.0638 36.7912 73.1485 36.8335 73.1909 36.9041C73.2332 36.9606 73.2614 37.017 73.2756 37.0735C73.2897 37.13 73.3038 37.1865 73.3038 37.2429C73.3038 37.2994 73.3038 37.3417 73.3038 37.3841V37.5535H73.2614C73.2614 37.5535 73.1909 37.5394 73.1203 37.5253C73.0638 37.5253 73.0073 37.5253 72.9226 37.5253C72.7956 37.5253 72.6685 37.5253 72.5556 37.5535C72.4285 37.5676 72.3014 37.5959 72.1885 37.6382C72.0756 37.6806 71.9626 37.737 71.8638 37.8076C71.765 37.8782 71.6803 37.9629 71.6097 38.0617C71.5532 38.1465 71.5109 38.2312 71.4826 38.3018C71.4544 38.3865 71.4403 38.457 71.4262 38.5276C71.4262 38.5982 71.412 38.6547 71.4262 38.697C71.4262 38.7676 71.4262 38.8382 71.4544 38.9229C71.4685 39.0076 71.4967 39.0923 71.5391 39.1912C71.5814 39.2759 71.6379 39.3606 71.7085 39.4312C71.7791 39.5017 71.8638 39.5723 71.9767 39.6147C72.0756 39.657 72.2167 39.6853 72.3579 39.6994C72.5132 39.6994 72.6685 39.6853 72.7814 39.6429C72.9085 39.6006 73.0214 39.5441 73.1062 39.4735C73.205 39.4029 73.2756 39.3041 73.3462 39.2053V39.4029C73.3462 39.4029 73.3462 39.4735 73.3462 39.5017C73.3462 39.53 73.3603 39.5582 73.3885 39.5865C73.4026 39.6147 73.4309 39.6147 73.4591 39.6288C73.4873 39.6288 73.5156 39.6288 73.5438 39.6288C73.572 39.6288 73.5862 39.6288 73.6003 39.6288H73.9391L73.9532 39.657ZM73.3179 38.6547C73.3179 38.7394 73.3038 38.81 73.2614 38.8665C73.2191 38.937 73.1767 38.9935 73.1203 39.0359C73.0638 39.0782 72.9932 39.1206 72.9085 39.1488C72.8661 39.1629 72.8238 39.177 72.7814 39.1912C72.7391 39.1912 72.6967 39.1912 72.6685 39.1912C72.5556 39.1912 72.4709 39.177 72.3862 39.1347C72.3014 39.0923 72.2309 39.0359 72.1885 38.9512C72.132 38.8665 72.1038 38.7676 72.1038 38.6406C72.1038 38.6123 72.1038 38.57 72.1038 38.5417C72.1038 38.4994 72.1038 38.4712 72.1179 38.4429C72.1462 38.3441 72.2026 38.2594 72.2732 38.1888C72.3438 38.1182 72.4426 38.0759 72.5556 38.0476C72.6685 38.0194 72.8097 38.0053 72.9509 38.0053C73.0214 38.0053 73.0779 38.0053 73.1344 38.0053C73.1909 38.0053 73.2332 38.0053 73.2614 38.0194C73.2897 38.0194 73.3038 38.0194 73.3038 38.0194V38.6406L73.3179 38.6547ZM76.4662 36.9747L76.3814 36.3535L76.2967 36.297C76.2967 36.297 76.2544 36.2688 76.2403 36.2688C76.212 36.2688 76.1979 36.2547 76.1697 36.2406C76.1414 36.2406 76.0991 36.2265 76.085 36.2265C76.0567 36.2265 76.0285 36.2265 76.0003 36.2265C75.9438 36.2265 75.9014 36.2265 75.845 36.2265C75.7885 36.2265 75.7462 36.2406 75.7038 36.2688C75.6614 36.2829 75.605 36.3253 75.5626 36.3676C75.5203 36.41 75.4779 36.4665 75.4356 36.5088C75.4073 36.5512 75.3791 36.6076 75.365 36.6359C75.3509 36.6782 75.3367 36.7065 75.3367 36.7206V36.2688H74.7014V39.657H75.3367V37.737C75.3367 37.737 75.3367 37.61 75.3367 37.5394C75.3367 37.4688 75.3509 37.3982 75.365 37.3135C75.3791 37.2429 75.4073 37.1582 75.4356 37.0876C75.4638 37.0312 75.5062 36.9747 75.5626 36.9323C75.605 36.89 75.6756 36.8476 75.732 36.8194C75.8026 36.7912 75.8732 36.777 75.9579 36.777C76.0709 36.777 76.1556 36.7912 76.2403 36.8335C76.325 36.8759 76.3956 36.9182 76.4662 36.9747ZM79.0073 39.657V37.4406C79.0073 37.2994 79.0073 37.1723 78.9791 37.0594C78.965 36.9465 78.9367 36.8617 78.8944 36.777C78.852 36.6923 78.7956 36.6076 78.725 36.537C78.6261 36.4382 78.4991 36.3535 78.3438 36.297C78.1885 36.2406 77.9767 36.2123 77.7509 36.1982C77.6097 36.1982 77.4826 36.1982 77.3838 36.2265C77.2709 36.2547 77.1861 36.2688 77.1156 36.297C77.045 36.3253 76.9885 36.3535 76.9603 36.3676L76.9038 36.3959L76.7909 36.9888C76.7909 36.9888 76.805 36.9747 76.8473 36.9465C76.8756 36.9182 76.932 36.8759 77.0026 36.8476C77.0732 36.8053 77.1579 36.777 77.2567 36.7488C77.3556 36.7206 77.4826 36.6923 77.6238 36.6923C77.7932 36.6923 77.9344 36.7206 78.0332 36.7488C78.132 36.7912 78.2167 36.8335 78.2591 36.9041C78.3014 36.9606 78.3297 37.017 78.3438 37.0735C78.3579 37.13 78.372 37.1865 78.372 37.2429C78.372 37.2994 78.372 37.3417 78.372 37.3841V37.5535H78.3297C78.3297 37.5535 78.245 37.5394 78.1885 37.5253C78.132 37.5253 78.0756 37.5253 77.9909 37.5253C77.8638 37.5253 77.7367 37.5253 77.6097 37.5535C77.4826 37.5676 77.3556 37.5959 77.2426 37.6382C77.1297 37.6806 77.0167 37.737 76.9179 37.8076C76.8191 37.8782 76.7344 37.9629 76.6638 38.0617C76.6073 38.1465 76.565 38.2312 76.5367 38.3018C76.5085 38.3865 76.4944 38.457 76.4803 38.5276C76.4803 38.5982 76.4803 38.6547 76.4803 38.697C76.4803 38.7676 76.4803 38.8382 76.5085 38.9229C76.5226 39.0076 76.5509 39.0923 76.5932 39.1912C76.6356 39.2759 76.692 39.3606 76.7626 39.4312C76.8332 39.5017 76.9179 39.5723 77.0309 39.6147C77.1438 39.657 77.2709 39.6853 77.412 39.6994C77.5673 39.6994 77.7226 39.6853 77.8356 39.6429C77.9626 39.6006 78.0756 39.5441 78.1603 39.4735C78.2591 39.4029 78.3297 39.3041 78.4003 39.2053V39.4029C78.4003 39.4029 78.4003 39.4735 78.4003 39.5017C78.4003 39.53 78.4144 39.5582 78.4426 39.5865C78.4567 39.6147 78.485 39.6147 78.5132 39.6288C78.5414 39.6288 78.5697 39.6288 78.5979 39.6288C78.6261 39.6288 78.6403 39.6288 78.6544 39.6288H78.9932L79.0073 39.657ZM78.372 38.6547C78.372 38.7394 78.3579 38.81 78.3156 38.8665C78.2732 38.937 78.2309 38.9935 78.1744 39.0359C78.1179 39.0782 78.0473 39.1206 77.9626 39.1488C77.9203 39.1629 77.8779 39.177 77.8356 39.1912C77.7932 39.1912 77.7509 39.1912 77.7226 39.1912C77.6097 39.1912 77.525 39.177 77.4403 39.1347C77.3556 39.0923 77.285 39.0359 77.2426 38.9512C77.1861 38.8665 77.172 38.7676 77.172 38.6406C77.172 38.6123 77.172 38.57 77.172 38.5417C77.172 38.4994 77.172 38.4712 77.1861 38.4429C77.2144 38.3441 77.2709 38.2594 77.3556 38.1888C77.4262 38.1182 77.525 38.0759 77.6379 38.0476C77.7509 38.0194 77.892 38.0053 78.0332 38.0053C78.1038 38.0053 78.1603 38.0053 78.2167 38.0053C78.2732 38.0053 78.3156 38.0053 78.3438 38.0194C78.372 38.0194 78.3862 38.0194 78.3862 38.0194V38.6406L78.372 38.6547ZM44.4756 36.6641C44.4756 36.41 44.4473 36.1982 44.3909 36.0147C44.3344 35.8312 44.2638 35.69 44.165 35.5629C44.0662 35.4359 43.9532 35.3512 43.812 35.2806C43.685 35.21 43.5438 35.1676 43.3885 35.1394C43.2332 35.1112 43.0779 35.097 42.9226 35.097H41.5532V39.6712H42.2873V38.217H42.9367C43.0638 38.217 43.1909 38.217 43.332 38.1888C43.4591 38.1747 43.5861 38.1323 43.7132 38.0759C43.8403 38.0194 43.9673 37.9347 44.0803 37.8076C44.1932 37.6947 44.292 37.5394 44.3626 37.3418C44.4332 37.1582 44.4614 36.9323 44.4614 36.6641H44.4756ZM43.7273 36.6641C43.7273 36.8053 43.7132 36.9323 43.685 37.0453C43.6567 37.1441 43.6144 37.2429 43.5438 37.3135C43.4873 37.3841 43.4309 37.4406 43.3744 37.4688C43.3179 37.5112 43.2614 37.5394 43.205 37.5535C43.1485 37.5676 43.092 37.5817 43.0497 37.5817C43.0073 37.5817 42.9791 37.5817 42.965 37.5817H42.3014V35.7041H42.965C42.965 35.7041 43.0638 35.7041 43.1344 35.7041C43.205 35.7041 43.2614 35.7323 43.332 35.7747C43.4026 35.8029 43.4591 35.8594 43.5297 35.93C43.5862 36.0006 43.6426 36.0994 43.6709 36.2123C43.7132 36.3253 43.7273 36.4806 43.7273 36.65V36.6641ZM47.5814 38.1606V37.9629C47.5814 37.8782 47.5814 37.7653 47.5814 37.6523C47.5814 37.5394 47.5532 37.4123 47.525 37.2712C47.4967 37.1441 47.4544 37.0029 47.3979 36.8759C47.3414 36.7488 47.2709 36.6359 47.172 36.537C47.0732 36.4382 46.9603 36.3535 46.8191 36.297C46.6779 36.2406 46.5085 36.2123 46.3109 36.2123C46.1132 36.2123 45.9297 36.2406 45.7885 36.297C45.6473 36.3535 45.5203 36.4382 45.4073 36.537C45.3085 36.6359 45.2238 36.7488 45.1532 36.8759C45.0967 37.0029 45.0403 37.13 44.9979 37.2712C44.9556 37.3982 44.9414 37.5394 44.9273 37.6665C44.9273 37.7935 44.9132 37.9065 44.9132 38.0053C44.9132 38.1041 44.9132 38.2029 44.9273 38.33C44.9273 38.4429 44.9697 38.57 44.9979 38.697C45.0403 38.8241 45.0826 38.9512 45.1532 39.0782C45.2238 39.2053 45.3226 39.3041 45.4356 39.4029C45.5485 39.5017 45.6897 39.5865 45.8591 39.6429C46.0285 39.6994 46.2262 39.7276 46.4662 39.7276C46.6214 39.7276 46.7485 39.7135 46.8614 39.6853C46.9744 39.657 47.0732 39.6288 47.1438 39.6006C47.2285 39.5723 47.285 39.5441 47.3273 39.5159C47.3697 39.4876 47.3979 39.4735 47.412 39.4594L47.4967 38.8665L47.4262 38.9229C47.4262 38.9229 47.3273 38.9935 47.2567 39.0217C47.1862 39.0641 47.0873 39.0923 46.9744 39.1206C46.8614 39.1488 46.7203 39.1488 46.565 39.1488C46.3814 39.1488 46.2262 39.1206 46.1132 39.0641C45.9862 39.0076 45.9014 38.9512 45.8167 38.8665C45.7462 38.7959 45.6897 38.7112 45.6614 38.6265C45.6191 38.5418 45.605 38.457 45.5909 38.3865C45.5909 38.3159 45.5767 38.2594 45.5767 38.217V38.1606H47.5814ZM46.9462 37.6947H45.5767C45.5767 37.6947 45.5767 37.6665 45.5767 37.61C45.5767 37.5535 45.5767 37.497 45.5909 37.4123C45.5909 37.3417 45.6191 37.257 45.6473 37.1723C45.6756 37.0876 45.7179 37.0029 45.7744 36.9323C45.8309 36.8617 45.8873 36.8053 45.9862 36.7629C46.0709 36.7206 46.1697 36.6923 46.2967 36.7065C46.4097 36.7065 46.5085 36.7347 46.5791 36.777C46.6638 36.8194 46.7203 36.89 46.7626 36.9606C46.805 37.0312 46.8473 37.1159 46.8756 37.1865C46.9038 37.2712 46.9179 37.3417 46.932 37.4265C46.932 37.497 46.9462 37.5676 46.9462 37.61C46.9462 37.6665 46.9462 37.6947 46.9462 37.6947ZM50.7156 39.657V37.3841C50.7156 37.2853 50.7156 37.1865 50.7014 37.0735C50.7014 36.9747 50.6732 36.8759 50.645 36.7912C50.6167 36.7065 50.5744 36.6218 50.5038 36.537C50.4191 36.4241 50.3203 36.3394 50.1791 36.2829C50.0379 36.2265 49.8826 36.1982 49.7132 36.1982C49.572 36.1982 49.4591 36.2265 49.3462 36.2547C49.2473 36.297 49.1485 36.3394 49.0779 36.3959C49.0073 36.4523 48.9509 36.5088 48.9085 36.5653C48.8661 36.6217 48.8379 36.6641 48.8238 36.7065V36.2688H48.1885V39.657H48.8238V37.5676C48.8238 37.5676 48.8238 37.4265 48.8379 37.3418C48.8379 37.257 48.8662 37.1723 48.8944 37.0876C48.9226 37.0029 48.9791 36.9323 49.0356 36.8618C49.092 36.8053 49.1485 36.7629 49.2191 36.7347C49.2897 36.7065 49.3744 36.6923 49.4732 36.6923C49.6144 36.6923 49.7273 36.7206 49.812 36.7629C49.8967 36.8053 49.9532 36.8759 49.9814 36.9465C50.0238 37.0312 50.0379 37.1159 50.052 37.2006C50.052 37.2994 50.0662 37.3982 50.052 37.497V39.6288H50.6732L50.7156 39.657ZM53.8214 36.2688H53.2003L52.4944 38.8947L51.7744 36.2688H51.125L52.1556 39.6429L52.1132 39.8688C52.1132 39.8688 52.085 39.9959 52.0567 40.0523C52.0285 40.1088 52.0003 40.1512 51.9438 40.1794C51.9014 40.2076 51.845 40.2359 51.7744 40.2359C51.6897 40.2359 51.6191 40.2359 51.5485 40.2076C51.4779 40.1935 51.4356 40.1653 51.3932 40.1512C51.3509 40.137 51.3367 40.1229 51.3367 40.1229L51.4073 40.6594C51.4073 40.6594 51.4356 40.6594 51.4779 40.6876C51.5203 40.7017 51.5767 40.73 51.6614 40.7441C51.7462 40.7582 51.8309 40.7723 51.9438 40.7723C52.085 40.7723 52.1838 40.7441 52.2826 40.6876C52.3673 40.6453 52.452 40.5747 52.5085 40.49C52.565 40.4053 52.6214 40.2923 52.6638 40.1794C52.7062 40.0665 52.7485 39.9394 52.7767 39.7982L53.8214 36.2688ZM56.6873 38.1465V37.9488C56.6873 37.8641 56.6873 37.7512 56.6873 37.6382C56.6873 37.5253 56.6591 37.3982 56.6309 37.257C56.6026 37.13 56.5603 36.9888 56.5038 36.8618C56.4473 36.7347 56.3767 36.6217 56.2779 36.5229C56.1791 36.4241 56.0662 36.3394 55.925 36.2829C55.7838 36.2265 55.6144 36.1982 55.4167 36.1982C55.2191 36.1982 55.0356 36.2265 54.8944 36.2829C54.7391 36.3394 54.6262 36.4241 54.5132 36.5229C54.4144 36.6217 54.3297 36.7347 54.2591 36.8618C54.1885 36.9888 54.1462 37.1159 54.1038 37.257C54.0756 37.3841 54.0473 37.5253 54.0332 37.6523C54.0332 37.7794 54.0191 37.8923 54.0191 37.9912C54.0191 38.09 54.0191 38.1888 54.0332 38.3159C54.0332 38.4288 54.0756 38.5559 54.1038 38.6829C54.1462 38.81 54.1885 38.937 54.2591 39.0641C54.3297 39.1912 54.4285 39.29 54.5414 39.3888C54.6544 39.4876 54.7956 39.5723 54.965 39.6288C55.1344 39.6853 55.332 39.7135 55.572 39.7135C55.7273 39.7135 55.8544 39.6994 55.9673 39.6712C56.0803 39.6429 56.1791 39.6147 56.2638 39.5865C56.3485 39.5582 56.405 39.53 56.4473 39.5017C56.4897 39.4735 56.5179 39.4594 56.532 39.4453L56.6167 38.8523C56.6167 38.8523 56.5885 38.8806 56.5462 38.9088C56.5038 38.937 56.4473 38.9794 56.3767 39.0076C56.3062 39.05 56.2073 39.0782 56.0944 39.1065C55.9814 39.1347 55.8403 39.1347 55.685 39.1347C55.5014 39.1347 55.3461 39.1065 55.2332 39.05C55.1061 38.9935 55.0073 38.937 54.9367 38.8523C54.8662 38.7817 54.8097 38.697 54.7814 38.6123C54.7532 38.5276 54.725 38.4429 54.7109 38.3723C54.7109 38.3017 54.6967 38.2453 54.6967 38.2029V38.1465H56.7014H56.6873ZM56.052 37.6806H54.6826C54.6826 37.6806 54.6826 37.6523 54.6826 37.5959C54.6826 37.5394 54.6826 37.4829 54.6967 37.3982C54.6967 37.3276 54.725 37.2429 54.7532 37.1582C54.7814 37.0735 54.8238 36.9888 54.8803 36.9182C54.9367 36.8476 55.0073 36.7912 55.092 36.7488C55.1767 36.7065 55.2756 36.6782 55.4026 36.6923C55.5156 36.6923 55.6144 36.7206 55.685 36.7629C55.7556 36.8053 55.8262 36.8759 55.8685 36.9465C55.9109 37.017 55.9532 37.1017 55.9814 37.1723C56.0097 37.257 56.0238 37.3276 56.0379 37.4123C56.0379 37.4829 56.052 37.5535 56.052 37.5959V37.6806ZM58.0003 35.0547H57.3791V39.6429H58.0003V35.0547ZM61.4026 38.1323V37.9347C61.4026 37.85 61.4026 37.737 61.4026 37.6241C61.4026 37.5112 61.3744 37.3841 61.3462 37.2429C61.3179 37.1159 61.2756 36.9747 61.2191 36.8476C61.1626 36.7206 61.092 36.6076 60.9932 36.5088C60.8944 36.41 60.7814 36.3253 60.6403 36.2688C60.4991 36.2123 60.3297 36.1841 60.132 36.1841C59.9344 36.1841 59.7509 36.2123 59.6097 36.2688C59.4544 36.3253 59.3414 36.41 59.2285 36.5088C59.1297 36.6076 59.045 36.7206 58.9744 36.8476C58.9179 36.9747 58.8614 37.1018 58.8332 37.2429C58.805 37.37 58.7767 37.5112 58.7626 37.6382C58.7485 37.7653 58.7485 37.8782 58.7485 37.977C58.7485 38.0759 58.7485 38.1747 58.7626 38.3018C58.7626 38.4147 58.805 38.5417 58.8332 38.6688C58.8756 38.7959 58.9179 38.9229 58.9885 39.05C59.0591 39.177 59.1579 39.2759 59.2709 39.3747C59.3838 39.4735 59.525 39.5582 59.6944 39.6147C59.8638 39.6712 60.0614 39.6994 60.3014 39.6994C60.4567 39.6994 60.5838 39.6853 60.6967 39.657C60.8097 39.6288 60.9085 39.6006 60.9791 39.5723C61.0638 39.5441 61.1203 39.5159 61.1626 39.4876C61.205 39.4594 61.2332 39.4453 61.2473 39.4312L61.332 38.8382C61.332 38.8382 61.3038 38.8665 61.2614 38.8947C61.2191 38.9229 61.1626 38.9653 61.092 38.9935C61.0214 39.0359 60.9226 39.0641 60.8097 39.0923C60.6967 39.1206 60.5556 39.1206 60.4003 39.1206C60.2167 39.1206 60.0614 39.0923 59.9485 39.0359C59.8214 38.9794 59.7367 38.9229 59.652 38.8382C59.5814 38.7676 59.525 38.6829 59.4826 38.5982C59.4403 38.5135 59.4262 38.4288 59.412 38.3582C59.412 38.2876 59.3979 38.2312 59.3979 38.1888V38.1323H61.4026ZM60.7673 37.6665H59.3979C59.3979 37.6665 59.3979 37.6382 59.3979 37.5817C59.3979 37.5253 59.3979 37.4688 59.412 37.3841C59.412 37.3135 59.4403 37.2288 59.4685 37.1441C59.4967 37.0594 59.5391 36.9747 59.5956 36.9041C59.652 36.8335 59.7226 36.777 59.8073 36.7347C59.892 36.6923 60.005 36.6641 60.1179 36.6782C60.2309 36.6782 60.3297 36.7065 60.4003 36.7488C60.485 36.7912 60.5414 36.8617 60.5838 36.9323C60.6262 37.0029 60.6685 37.0876 60.6967 37.1582C60.725 37.2429 60.7391 37.3135 60.7532 37.3982C60.7532 37.4688 60.7673 37.5394 60.7673 37.5817C60.7673 37.6382 60.7673 37.6665 60.7673 37.6665ZM64.5367 39.6288V37.3559C64.5367 37.257 64.5367 37.1582 64.5226 37.0453C64.5226 36.9465 64.4944 36.8476 64.4662 36.7629C64.4379 36.6782 64.3956 36.5935 64.325 36.5088C64.2403 36.3959 64.1414 36.3112 64.0003 36.2547C63.8591 36.1982 63.7038 36.17 63.5344 36.17C63.3932 36.17 63.2662 36.1982 63.1673 36.2265C63.0685 36.2688 62.9697 36.3112 62.8991 36.3676C62.8285 36.4241 62.772 36.4806 62.7297 36.537C62.6873 36.5935 62.6591 36.6359 62.645 36.6782V36.2406H62.0097V39.6288H62.645V37.5394C62.645 37.5394 62.645 37.3982 62.6591 37.3135C62.6591 37.2288 62.6873 37.1441 62.7156 37.0594C62.7438 36.9747 62.8003 36.9041 62.8567 36.8335C62.9132 36.777 62.9697 36.7347 63.0403 36.7065C63.1109 36.6782 63.1956 36.6641 63.2944 36.6641C63.4356 36.6641 63.5485 36.6923 63.6332 36.7347C63.7179 36.777 63.7744 36.8476 63.8026 36.9182C63.845 37.0029 63.8591 37.0876 63.8732 37.1723C63.8732 37.2712 63.8873 37.37 63.8732 37.4688V39.6006H64.4944L64.5367 39.6288Z" fill="#1C4481"/>
<path fill-rule="evenodd" clip-rule="evenodd" d="M1.54335 30.8163C1.81158 28.8822 3.661 28.3739 3.84453 26.6092C3.01158 26.9904 2.00923 26.8775 1.27511 26.2422C0.45629 27.7669 0.413937 29.2634 1.54335 30.8163Z" fill="#1C4481"/>
<path fill-rule="evenodd" clip-rule="evenodd" d="M5.12937 25.2436C6.07525 25.1024 6.89407 24.4106 7.67054 23.7188C8.74348 22.773 10.24 21.6012 11.6658 21.7141C9.11054 20.8953 6.3576 21.4741 4.66348 22.5612C5.31289 23.3094 5.46819 24.3541 5.11525 25.2436H5.12937Z" fill="#1C4481"/>
<path fill-rule="evenodd" clip-rule="evenodd" d="M17.3129 31.4297C17.0447 33.3638 15.1952 33.872 15.0117 35.6367C15.8447 35.2556 16.847 35.3685 17.5811 36.0038C18.4 34.4791 18.4423 32.9826 17.3129 31.4297Z" fill="#1C4481"/>
<path fill-rule="evenodd" clip-rule="evenodd" d="M13.7271 37.0156C12.7812 37.1568 11.9624 37.8486 11.1859 38.5403C10.113 39.4862 8.6165 40.658 7.19061 40.545C9.74591 41.3639 12.4988 40.785 14.1788 39.698C13.5294 38.9497 13.3741 37.905 13.7271 37.0156Z" fill="#1C4481"/>
<path fill-rule="evenodd" clip-rule="evenodd" d="M9.71777 22.9259C11.5672 23.2082 12.0754 25.1282 13.7695 25.3259C13.4025 24.4506 13.5154 23.4059 14.1225 22.6576C12.6542 21.8106 11.2142 21.7682 9.71777 22.94V22.9259Z" fill="#04A44E"/>
<path fill-rule="evenodd" clip-rule="evenodd" d="M15.0967 26.6519C15.2379 27.6401 15.9014 28.4872 16.5649 29.2919C17.4684 30.4072 18.5979 31.9601 18.4849 33.4425C19.2755 30.7883 18.7108 27.9225 17.6802 26.1719C16.9602 26.8495 15.9579 27.0048 15.0967 26.6378V26.6519Z" fill="#04A44E"/>
<path fill-rule="evenodd" clip-rule="evenodd" d="M9.13908 39.3219C7.28967 39.0395 6.78143 37.1195 5.08732 36.9219C5.45437 37.7972 5.34143 38.8419 4.73438 39.6042C6.20261 40.4513 7.64261 40.4936 9.13908 39.3219Z" fill="#04A44E"/>
<path fill-rule="evenodd" clip-rule="evenodd" d="M3.76014 35.5953C3.61896 34.607 2.95544 33.76 2.29191 32.9553C1.38838 31.84 0.258964 30.287 0.371906 28.8047C-0.418683 31.4588 0.146023 34.3247 1.17661 36.0753C1.89661 35.3976 2.89896 35.2423 3.76014 35.6094V35.5953Z" fill="#04A44E"/>
<path fill-rule="evenodd" clip-rule="evenodd" d="M17.4826 22.7626C18.2732 23.5814 18.2732 24.9084 17.4826 25.7273C16.692 26.5461 15.4214 26.5461 14.6308 25.7273C13.8403 24.9084 13.8403 23.5814 14.6308 22.7626C15.4214 21.9437 16.692 21.9437 17.4826 22.7626Z" fill="#04A44E"/>
<path fill-rule="evenodd" clip-rule="evenodd" d="M4.22577 36.5204C5.01636 37.3392 5.01636 38.6663 4.22577 39.4851C3.43518 40.3039 2.1646 40.3039 1.37401 39.4851C0.58342 38.6663 0.58342 37.3392 1.37401 36.5204C2.1646 35.7015 3.43518 35.7015 4.22577 36.5204Z" fill="#04A44E"/>
<path fill-rule="evenodd" clip-rule="evenodd" d="M17.4826 39.4851C16.692 40.3039 15.4214 40.3039 14.6308 39.4851C13.8403 38.6663 13.8403 37.3392 14.6308 36.5204C15.4214 35.7015 16.692 35.7015 17.4826 36.5204C18.2732 37.3392 18.2732 38.6663 17.4826 39.4851Z" fill="#1C4481"/>
<path fill-rule="evenodd" clip-rule="evenodd" d="M4.22577 25.7273C3.43518 26.5461 2.1646 26.5461 1.37401 25.7273C0.58342 24.9084 0.58342 23.5814 1.37401 22.7626C2.1646 21.9437 3.43518 21.9437 4.22577 22.7626C5.01636 23.5814 5.01636 24.9084 4.22577 25.7273Z" fill="#1C4481"/>
<path fill-rule="evenodd" clip-rule="evenodd" d="M11.7651 33.505L10.2827 32.0226V33.632H8.56036V32.8979L7.03565 34.465L8.56036 36.032V35.2979H10.9321C11.0733 35.2979 11.2004 35.2556 11.3274 35.2132H11.3556V35.185H11.4121V35.1567H11.4404V35.1285H11.4686C11.4686 35.1285 11.4686 35.1003 11.4827 35.1003H11.4968V35.072H11.5251V35.0438H11.5533V35.0156H11.5815V34.9873H11.6098V34.9591H11.638V34.9308H11.6662V34.9026H11.6804V34.8744H11.7086V34.8461C11.7086 34.8461 11.7086 34.8461 11.7227 34.832H11.7368V34.8038H11.7509C11.7509 34.8038 11.7509 34.7756 11.7509 34.7614V34.7332H11.7651C11.7651 34.7332 11.7651 34.705 11.7651 34.6908V34.6626H11.7792V34.6344V34.6061V34.5638C11.7792 34.5638 11.7792 34.5497 11.7792 34.5356V34.5073C11.7792 34.5073 11.7792 34.4932 11.7792 34.4791V34.4508V34.4226V34.3944V34.3661V34.3097V34.2814C11.7792 34.2814 11.7792 34.2673 11.7792 34.2532V33.6744C11.7792 33.5614 11.7792 33.4909 11.6662 33.3638L11.7651 33.505ZM13.4309 32.0226V29.552C13.4309 29.4108 13.4027 29.2697 13.3462 29.1426V29.1144C13.3462 29.1144 13.3462 29.1003 13.3321 29.0861V29.0579H13.318C13.318 29.0579 13.318 29.0297 13.318 29.0156V28.9873H13.3039V28.9591H13.2756V28.9308H13.2615V28.9026H13.2333V28.8744H13.2192V28.8461H13.1909V28.8179H13.1627V28.7897H13.1345V28.7614H13.1062V28.7332H13.0639V28.705H13.0215V28.6767H12.9792V28.6485H12.9368V28.6203H12.8945C12.8945 28.6203 12.8945 28.6061 12.8804 28.6061H12.838V28.5779C12.838 28.5779 12.8239 28.5779 12.8098 28.5779H12.7674L12.7392 28.5497H12.6968C12.6968 28.5497 12.6827 28.5356 12.6686 28.5356H12.6262C12.6262 28.5356 12.6121 28.5356 12.598 28.5214H11.9909C11.878 28.5214 11.8074 28.5073 11.6945 28.6344L10.2686 30.1732H11.8215V31.9661H11.1156L12.6262 33.5473L14.1368 31.9661H13.4309V32.0226ZM7.02153 32.0226V30.2297H7.72741L6.21683 28.6485L4.70624 30.2297H5.41212V32.7003C5.41212 32.8414 5.44036 32.9826 5.49683 33.1097V33.152H5.52506V33.1803H5.53918V33.2085H5.56741V33.2367H5.58153V33.2791H5.60977V33.3073H5.638V33.3356H5.66624V33.3638V33.392H5.69447V33.4203H5.72271V33.4485H5.75094V33.4767H5.77918V33.505H5.82153V33.5332H5.86389V33.5614H5.878C5.878 33.5614 5.878 33.5756 5.89212 33.5756H5.92036V33.6038H5.96271V33.632H5.97683C5.97683 33.632 5.97683 33.632 5.99094 33.632H6.0333V33.6603H6.06153C6.06153 33.6603 6.06153 33.6744 6.07565 33.6744H6.118V33.7026H6.16036C6.16036 33.7026 6.17447 33.7026 6.18859 33.7026H6.24506C6.24506 33.7026 6.25918 33.7026 6.2733 33.7026H6.88036C6.9933 33.7026 7.06388 33.7167 7.17683 33.5897L8.60271 32.0508H7.04977L7.02153 32.0226ZM11.8074 27.8014L10.2827 26.2344V26.9685H7.89683C7.75565 26.9685 7.62859 26.9967 7.50153 27.0532H7.4733L7.44506 27.0814H7.41683V27.1097C7.41683 27.1097 7.40271 27.1097 7.38859 27.1097H7.36036V27.1379H7.33212V27.1661H7.30389V27.1944C7.30389 27.1944 7.28977 27.1944 7.27565 27.2085H7.26153V27.2367H7.2333V27.265H7.20506V27.2932H7.19094V27.3214H7.16271V27.3497H7.13447V27.3779H7.10624V27.4061H7.09212V27.4344H7.078V27.4626V27.4909C7.078 27.4909 7.078 27.505 7.078 27.5191V27.5473H7.06388V27.5756V27.6038V27.632V27.6603C7.06388 27.6603 7.06388 27.6744 7.06388 27.6885V27.7167V27.745V27.7732C7.06388 27.7732 7.06388 27.7873 7.06388 27.8014V27.8297V27.8579V27.8861V27.9144V27.9426V28.0132V28.5779C7.06388 28.6908 7.06388 28.7614 7.17683 28.8885L8.65918 30.3708V28.7614H10.3815V29.4956L11.9062 27.9285L11.8074 27.8014Z" fill="#04A44E"/>
</svg>
