<svg width="120" height="60" viewBox="0 0 120 60" fill="none" xmlns="http://www.w3.org/2000/svg">
<path d="M0 25.0309C0 23.9721 0.847059 23.125 1.90588 23.125C2.96471 23.125 3.81176 23.9721 3.81176 25.0309V38.8521C3.81176 39.9109 2.96471 40.7579 1.90588 40.7579C0.847059 40.7579 0 39.9109 0 38.8521V25.0309Z" fill="#ED3227"/>
<path d="M6.84729 29.0702C6.84729 28.0255 7.69435 27.1926 8.72494 27.1926C9.75553 27.1926 10.6026 28.0396 10.6026 29.0702V29.2255C11.4638 28.1102 12.5791 27.0938 14.4849 27.0938C17.3367 27.0938 18.9885 28.9714 18.9885 32.0208V38.882C18.9885 39.9267 18.1414 40.7596 17.1108 40.7596C16.0802 40.7596 15.2332 39.9126 15.2332 38.882V33.2067C15.2332 31.4279 14.3861 30.5102 12.9602 30.5102C11.5343 30.5102 10.6026 31.4279 10.6026 33.2067V38.882C10.6026 39.9267 9.75553 40.7596 8.72494 40.7596C7.69435 40.7596 6.84729 39.9126 6.84729 38.882V29.0702Z" fill="#ED3227"/>
<path d="M34.814 38.88C34.814 39.9247 33.9669 40.7577 32.9364 40.7577C31.9058 40.7577 31.0587 39.9106 31.0587 38.88V38.7106C30.1411 39.953 28.8846 40.8706 26.9222 40.8706C23.8305 40.8706 20.8799 38.4424 20.8799 34.0094V33.9671C20.8799 29.5342 23.774 27.1059 26.9222 27.1059C28.9269 27.1059 30.1693 28.0236 31.0587 29.0824V24.2683C31.0587 23.2236 31.9058 22.3906 32.9364 22.3906C33.9669 22.3906 34.814 23.2377 34.814 24.2683V38.88ZM24.6352 33.953V33.9953C24.6352 36.1977 26.1175 37.6659 27.8822 37.6659C29.6469 37.6659 31.1011 36.2118 31.1011 33.9953V33.953C31.1011 31.7506 29.6469 30.2824 27.8822 30.2824C26.1175 30.2824 24.6352 31.7224 24.6352 33.953Z" fill="#ED3227"/>
<path d="M37.3412 24.171C37.3412 23.0839 38.2588 22.4062 39.4447 22.4062C40.6306 22.4062 41.5482 23.0698 41.5482 24.171V24.2133C41.5482 25.3004 40.6306 25.9921 39.4447 25.9921C38.2588 25.9921 37.3412 25.3004 37.3412 24.2133V24.171ZM37.5671 29.0698C37.5671 28.0251 38.4141 27.1921 39.4447 27.1921C40.4753 27.1921 41.3224 28.0392 41.3224 29.0698V38.8815C41.3224 39.9263 40.4753 40.7592 39.4447 40.7592C38.4141 40.7592 37.5671 39.9121 37.5671 38.8815V29.0698Z" fill="#ED3227"/>
<path d="M44.4422 25.0309C44.4422 23.9721 45.2893 23.125 46.3481 23.125C47.4069 23.125 48.254 23.9721 48.254 25.0309V30.1274H55.2846V25.0309C55.2846 23.9721 56.1316 23.125 57.1904 23.125C58.2493 23.125 59.0963 23.9721 59.0963 25.0309V38.8521C59.0963 39.9109 58.2493 40.7579 57.1904 40.7579C56.1316 40.7579 55.2846 39.9109 55.2846 38.8521V33.6568H48.254V38.8521C48.254 39.9109 47.4069 40.7579 46.3481 40.7579C45.2893 40.7579 44.4422 39.9109 44.4422 38.8521V25.0309Z" fill="#818486"/>
<path d="M83.3789 29.0702C83.3789 28.0255 84.226 27.1926 85.2566 27.1926C86.2871 27.1926 87.1342 28.0396 87.1342 29.0702V29.2255C87.9954 28.1102 89.1389 27.0938 91.0448 27.0938C92.7813 27.0938 94.0942 27.8561 94.786 29.1973C95.9436 27.842 97.3413 27.0938 99.1483 27.0938C101.944 27.0938 103.638 28.7737 103.638 31.9785V38.882C103.638 39.9267 102.791 40.7596 101.76 40.7596C100.729 40.7596 99.8824 39.9126 99.8824 38.882V33.2067C99.8824 31.4279 99.0918 30.5102 97.6801 30.5102C96.2683 30.5102 95.4071 31.4279 95.4071 33.2067V38.882C95.4071 39.9267 94.5601 40.7596 93.5295 40.7596C92.4989 40.7596 91.6518 39.9126 91.6518 38.882V33.2067C91.6518 31.4279 90.8613 30.5102 89.4495 30.5102C88.0377 30.5102 87.1766 31.4279 87.1766 33.2067V38.882C87.1766 39.9267 86.3295 40.7596 85.2989 40.7596C84.2683 40.7596 83.4213 39.9126 83.4213 38.882V29.0702H83.3789Z" fill="#818486"/>
<path d="M112.574 40.9149C108.593 40.9149 105.642 38.1196 105.642 34.0537V33.9973C105.642 30.2137 108.339 27.0938 112.207 27.0938C116.64 27.0938 118.602 30.7361 118.602 33.489C118.602 34.5761 117.84 35.2961 116.838 35.2961H109.383C109.75 37.0043 110.95 37.8937 112.63 37.8937C113.675 37.8937 114.536 37.569 115.299 37.0043C115.567 36.8067 115.821 36.7079 116.216 36.7079C117.063 36.7079 117.685 37.3573 117.685 38.1902C117.685 38.6843 117.459 39.0514 117.19 39.3055C116.033 40.2937 114.522 40.9149 112.588 40.9149H112.574ZM115.002 32.9385C114.776 31.2585 113.788 30.1149 112.207 30.1149C110.626 30.1149 109.638 31.2302 109.327 32.9385H115.002Z" fill="#818486"/>
<path d="M70.9982 30.3438C69.2476 30.3438 67.8359 31.8402 67.8359 33.6896C67.8359 35.539 69.2476 37.0355 70.9982 37.0355C72.7488 37.0355 74.1606 35.539 74.1606 33.6896C74.1606 31.8402 72.7488 30.3438 70.9982 30.3438Z" fill="#EC1C24"/>
<path d="M71.0829 25.2188L62.5699 30.0752V38.9976C62.5699 40.4235 63.2617 40.8893 64.5323 40.8893H77.6194C78.8899 40.8893 79.5817 40.4235 79.5817 38.9976V30.0752L71.0688 25.2188H71.0829ZM70.9982 40.3387C67.2005 40.3387 64.1229 37.3599 64.1229 33.6893C64.1229 30.0187 67.2005 27.0399 70.9982 27.0399C74.7958 27.0399 77.8735 30.0187 77.8735 33.6893C77.8735 37.3599 74.7958 40.3387 70.9982 40.3387Z" fill="#EC1C24"/>
<path d="M81.0637 27.2339L71.1107 21.615L68.6543 22.9986C68.6543 22.8997 68.6825 22.8009 68.6825 22.7021C68.6825 21.0786 67.3696 19.7656 65.746 19.7656C64.1225 19.7656 62.8096 21.0786 62.8096 22.7021C62.8096 23.8739 63.5013 24.8762 64.5037 25.3562L61.1719 27.2339C60.5649 27.5727 60.339 28.3633 60.6919 28.9703C61.0449 29.5774 61.8213 29.8033 62.4284 29.4503L65.2378 27.8692V23.5209H66.2825V27.2762L71.1249 24.5374L79.8213 29.4503C80.4284 29.8033 81.219 29.5774 81.5578 28.9703C81.8966 28.3633 81.6849 27.5727 81.0778 27.2339H81.0637ZM64.7013 23.7609C64.7013 23.7609 64.6166 23.8174 64.5601 23.8174C64.5037 23.8174 64.4613 23.8033 64.419 23.7609C63.6849 23.0268 63.6849 21.8409 64.419 21.1068C64.5037 21.0221 64.6307 21.0221 64.7013 21.1068C64.786 21.1915 64.786 21.3186 64.7013 21.3892C64.1225 21.968 64.1225 22.8997 64.7013 23.4786C64.786 23.5633 64.786 23.6903 64.7013 23.7609ZM65.2519 22.9139C65.3366 22.9986 65.3366 23.1256 65.2519 23.1962C65.2096 23.2386 65.1672 23.2527 65.1107 23.2527C65.0543 23.2527 65.0119 23.2386 64.9696 23.1962C64.546 22.7727 64.546 22.0809 64.9696 21.6433C65.0543 21.5586 65.1813 21.5586 65.2519 21.6433C65.3366 21.728 65.3366 21.855 65.2519 21.9256C64.9837 22.1939 64.9837 22.6315 65.2519 22.8997V22.9139ZM65.746 22.7021C65.5907 22.7021 65.4778 22.575 65.4778 22.4339C65.4778 22.2927 65.6048 22.1656 65.746 22.1656C65.8872 22.1656 66.0143 22.2927 66.0143 22.4339C66.0143 22.575 65.8872 22.7021 65.746 22.7021ZM66.3813 23.2668C66.3813 23.2668 66.2825 23.2527 66.2401 23.2103C66.1554 23.1256 66.1554 22.9986 66.2401 22.928C66.5084 22.6597 66.5084 22.2221 66.2401 21.9539C66.1554 21.8692 66.1554 21.7421 66.2401 21.6715C66.3248 21.5868 66.4519 21.5868 66.5225 21.6715C66.946 22.095 66.946 22.7868 66.5225 23.2244C66.4801 23.2668 66.4378 23.2809 66.3813 23.2809V23.2668ZM67.0872 23.7609C67.0872 23.7609 67.0025 23.8174 66.946 23.8174C66.8896 23.8174 66.8472 23.8033 66.8048 23.7609C66.7201 23.6762 66.7201 23.5492 66.8048 23.4786C67.3837 22.8997 67.3837 21.968 66.8048 21.3892C66.7201 21.3044 66.7201 21.1774 66.8048 21.1068C66.8896 21.0221 67.0166 21.0221 67.0872 21.1068C67.8213 21.8409 67.8213 23.0268 67.0872 23.7609Z" fill="#EC1C24"/>
</svg>
