<svg width="120" height="60" viewBox="0 0 120 60" fill="none" xmlns="http://www.w3.org/2000/svg">
<path d="M50.7106 40.2021H55.8353V33.7362H60.8753C64.9412 33.7362 67.6941 30.6868 67.6941 26.4797C67.6941 22.2727 64.9412 19.2797 60.8753 19.2797H50.7247V40.2162L50.7106 40.2021ZM99.4588 40.2021H104.569L104.541 27.948L112.984 40.2021H118.574V19.2656H113.464V32.028L104.626 19.2656H99.4447V40.2021H99.4588ZM75.6706 40.2021H90.7906V35.8115H80.7812V19.2656H75.6565V40.2021H75.6706ZM55.8212 29.3456V23.6703H59.887C61.5812 23.6703 62.4565 24.8139 62.4565 26.4797C62.4565 28.1456 61.5812 29.3456 59.7882 29.3456H55.807H55.8212Z" fill="#28A8E0"/>
<path d="M42.3106 8.46875H0V50.7793H42.3106V8.46875Z" fill="#F7E82E"/>
<path fill-rule="evenodd" clip-rule="evenodd" d="M8.52716 23.8028C9.65657 23.1816 11.2519 22.6875 12.5225 22.6875C14.9507 22.6875 15.5154 23.8028 16.7013 23.8028C17.8872 23.8028 19.1154 22.6875 21.3319 22.6875C23.3366 22.6875 24.3954 23.8028 26.1883 23.8028C27.9813 23.8028 27.6001 22.6875 30.1272 22.6875C32.6542 22.6875 33.7836 23.8028 33.7836 23.8028V26.6546C33.7836 26.6546 32.4425 25.4687 30.3389 25.4404C28.2495 25.4122 28.306 26.6546 26.2025 26.6546C24.0989 26.6546 23.9154 25.4404 21.4448 25.4404C18.9742 25.4404 18.593 26.6546 16.673 26.6546C14.753 26.6546 14.4001 25.384 12.3954 25.4122C10.3907 25.4404 8.52716 26.6546 8.52716 26.6546V23.8028Z" fill="#28A8E0"/>
<path fill-rule="evenodd" clip-rule="evenodd" d="M8.52716 30.459C9.65657 29.8379 11.2519 29.3438 12.5225 29.3438C14.9507 29.3438 15.5154 30.459 16.7013 30.459C17.8872 30.459 19.1154 29.3438 21.3319 29.3438C23.3366 29.3438 24.3954 30.459 26.1883 30.459C27.9813 30.459 27.6001 29.3438 30.1272 29.3438C32.6542 29.3438 33.7836 30.459 33.7836 30.459V33.3108C33.7836 33.3108 32.4425 32.1108 30.3389 32.0967C28.2495 32.0826 28.306 33.3108 26.2025 33.3108C24.0989 33.3108 23.9154 32.0967 21.4448 32.0967C18.9742 32.0967 18.593 33.3108 16.673 33.3108C14.753 33.3108 14.4001 32.0402 12.3954 32.0685C10.3907 32.0826 8.52716 33.3108 8.52716 33.3108V30.459Z" fill="#28A8E0"/>
<path fill-rule="evenodd" clip-rule="evenodd" d="M8.52716 37.1153C9.65657 36.48 11.2519 36 12.5225 36C14.9507 36 15.5154 37.1153 16.7013 37.1153C17.8872 37.1153 19.1154 36 21.3319 36C23.3366 36 24.3954 37.1153 26.1883 37.1153C27.9813 37.1153 27.6001 36 30.1272 36C32.6542 36 33.7836 37.1153 33.7836 37.1153V39.9812C33.7836 39.9812 32.4425 38.7812 30.3389 38.7529C28.2495 38.7247 28.306 39.9812 26.2025 39.9812C24.0989 39.9812 23.9154 38.7529 21.4448 38.7529C18.9742 38.7529 18.593 39.9812 16.673 39.9812C14.753 39.9812 14.4001 38.7106 12.3954 38.7388C10.3907 38.7671 8.52716 39.9812 8.52716 39.9812V37.1153Z" fill="#28A8E0"/>
<path fill-rule="evenodd" clip-rule="evenodd" d="M19.9621 46.3337L23.1668 30.2537L11.7738 35.2513L18.4374 14.1172H23.8444L17.5338 28.7713L28.7715 24.2254L19.9621 46.3337Z" fill="#E62A2B"/>
</svg>
