<svg width="120" height="60" viewBox="0 0 120 60" fill="none" xmlns="http://www.w3.org/2000/svg">
<path fill-rule="evenodd" clip-rule="evenodd" d="M42.4688 54.435C55.6829 55.9456 69.2358 52.2468 76.3793 51.4844C78.3982 51.2727 79.9088 51.4138 80.7699 52.0774C82.0688 53.0656 82.0405 54.3221 80.9676 56.5527C79.8664 58.8397 81.3064 59.8562 83.8335 58.995C90.3135 56.7644 103.429 45.0609 101.523 28.1903C99.5888 11.0515 83.5935 -0.0873489 59.3817 1.57853C34.7746 3.27265 18.8076 15.8797 17.057 30.2656C15.9699 39.2021 22.3935 52.1479 42.4688 54.4491V54.435Z" fill="#6F2B90"/>
<path fill-rule="evenodd" clip-rule="evenodd" d="M89.5504 33.5008C89.5504 36.1832 87.3199 38.3573 84.5669 38.3573H74.0775C73.174 38.3573 72.4398 37.6514 72.4398 36.7761C72.4398 35.9008 73.1599 35.1808 74.0775 35.1808H84.5669C85.5128 35.1808 86.2893 34.4326 86.2893 33.5008C86.2893 32.569 85.5128 31.8208 84.5669 31.8208H76.9716C74.2328 31.8208 71.9881 29.6467 71.9881 26.9643C71.9881 24.282 74.2187 22.1079 76.9716 22.1079H87.4328C88.3363 22.1079 89.0563 22.8138 89.0563 23.7032C89.0563 24.5926 88.3222 25.2985 87.4328 25.2985H76.9716C76.0116 25.2985 75.2493 26.0467 75.2493 26.9785C75.2493 27.9102 76.0257 28.6585 76.9716 28.6585H84.5669C87.3057 28.6585 89.5504 30.8326 89.5504 33.5149V33.5008ZM68.6281 22.0938C67.7246 22.0938 67.0046 22.8138 67.0046 23.6749V36.7761C67.0046 37.6514 67.7387 38.3573 68.6281 38.3573C69.5175 38.3573 70.2516 37.6514 70.2516 36.7761V23.689C70.2516 22.8138 69.5316 22.1079 68.6281 22.1079V22.0938ZM59.5222 30.2255L65.0563 24.8185C65.3669 24.522 65.5363 24.1126 65.5363 23.689C65.5363 23.2655 65.3669 22.8561 65.0563 22.5596C64.7457 22.2632 64.3363 22.0938 63.9128 22.0938C63.4893 22.0938 63.0657 22.2632 62.7693 22.5596L57.221 27.9667L51.6869 22.5596C51.3763 22.2632 50.9669 22.0938 50.5293 22.0938C50.0916 22.0938 49.6822 22.2632 49.3716 22.5596C49.061 22.8561 48.8916 23.2655 48.8916 23.689C48.8916 24.1126 49.061 24.522 49.3716 24.8185L54.9057 30.2255L49.3575 35.6326C49.061 35.929 48.8916 36.3385 48.8916 36.7479C48.8916 37.1573 49.061 37.5808 49.3716 37.8632C49.6963 38.1737 50.1057 38.329 50.5151 38.329C50.9246 38.329 51.3481 38.1737 51.6728 37.8632L57.221 32.4561L62.7693 37.8632C63.094 38.1737 63.5034 38.329 63.9128 38.329C64.3363 38.329 64.7457 38.1596 65.0563 37.8632C65.3669 37.5667 65.5363 37.1573 65.5363 36.7338C65.5363 36.3102 65.3669 35.9008 65.0563 35.6043L59.5222 30.1973V30.2255ZM47.7763 35.9714C47.9175 36.2114 47.9881 36.4796 47.9881 36.762C47.9881 37.3408 47.6775 37.8632 47.1693 38.1455C46.9293 38.2867 46.6469 38.3573 46.3646 38.3573H46.3504C45.7716 38.3573 45.2351 38.0608 44.9387 37.5667L43.301 34.7714H34.0822L32.4304 37.5667C31.9787 38.329 30.9904 38.5832 30.214 38.1455C29.7057 37.8773 29.3951 37.3408 29.3951 36.7761C29.3951 36.4937 29.4657 36.2255 29.6069 35.9855L31.6963 32.4279L37.2728 22.9549C37.5693 22.4608 38.1057 22.1643 38.6846 22.1643C39.2634 22.1643 39.7998 22.4608 40.0963 22.9549L45.6587 32.3996V32.4279L47.7622 35.9714H47.7763ZM41.4375 31.5808L38.6987 26.922L35.9598 31.5808H41.4375Z" fill="white"/>
</svg>
